<svg width="120" viewBox="0 0 72 14" version="1.1" xmlns="http://www.w3.org/2000/svg" xmlns:xlink="http://www.w3.org/1999/xlink">
<title>Logo</title>
<desc>Created using Figma</desc>
<g id="Canvas" transform="translate(-2525 7127)">
<g id="Logo">
<g id="Vector">
<use xlink:href="#path0_fill" transform="translate(2543.9 -7123.32)" fill="#464D51"/>
</g>
<g id="Vector">
<use xlink:href="#path1_fill" transform="translate(2549.4 -7123.41)" fill="#464D51"/>
</g>
<g id="Vector">
<use xlink:href="#path2_fill" transform="translate(2574.86 -7123.09)" fill="#464D51"/>
</g>
<g id="Vector">
<use xlink:href="#path3_fill" transform="translate(2588.58 -7127)" fill="#464D51"/>
</g>
<g id="Vector">
<use xlink:href="#path4_fill" transform="translate(2559.46 -7123.41)" fill="#464D51"/>
</g>
<g id="Vector">
<use xlink:href="#path5_fill" transform="translate(2578.79 -7123.41)" fill="#464D51"/>
</g>
<g id="Vector">
<use xlink:href="#path6_fill" transform="translate(2525 -7126)" fill="#4A89DC"/>
</g>
</g>
</g>
<defs>
<path id="path0_fill" d="M 4.48736 0.191679C 4.02759 0.0670878 3.57701 1.46239e-07 3.10805 1.46239e-07C 1.14023 1.46239e-07 0 1.23633 0 3.31605L 0 8.37637C 0 8.56805 0.036781 8.64472 0.220689 8.64472L 1.18621 8.64472C 1.37011 8.64472 1.50805 8.56805 1.50805 8.37637L 1.50805 3.25854C 1.50805 1.70594 2.70345 1.54302 3.22759 1.54302C 3.49425 1.54302 3.83448 1.59094 4.17471 1.68677C 4.36782 1.71553 4.49655 1.62927 4.51494 1.45676L 4.71724 0.584621C 4.77241 0.31627 4.56092 0.230015 4.48736 0.191679Z"/>
<path id="path1_fill" d="M 4.24828 0C 1.66437 0 -1.12249e-06 1.77303 -1.12249e-06 4.51404C -1.12249e-06 7.25505 1.66437 9.02808 4.24828 9.02808C 5.6 9.02808 6.69425 8.5393 7.51264 7.5809C 7.55862 7.51381 7.57701 7.43714 7.56782 7.37005C 7.55862 7.29338 7.50345 7.21671 7.42989 7.16879L 6.6023 6.72793C 6.43678 6.65126 6.28046 6.68001 6.16092 6.8046C 5.71034 7.23588 4.9931 7.49465 4.24828 7.49465C 2.68506 7.49465 1.71954 6.52667 1.56322 4.83031L 8.1931 4.83031C 8.34023 4.83031 8.45977 4.78239 8.48736 4.63863C 8.48736 4.61946 8.48736 4.45653 8.48736 4.45653C 8.48736 3.07645 8.06437 1.93596 7.25517 1.14049C 6.50115 0.383358 5.46207 0 4.24828 0ZM 1.67356 3.45022C 1.67356 3.44064 1.67356 3.43105 1.68276 3.43105C 2.01379 2.21389 2.92414 1.5526 4.24828 1.5526C 5.54483 1.5526 6.44598 2.07972 6.7954 3.45022L 1.67356 3.45022Z"/>
<path id="path2_fill" d="M 1.3885 -7.31197e-08L 0.294255 -7.31197e-08C 0.128738 -7.31197e-08 1.12249e-06 0.134175 1.12249e-06 0.306686L 1.12249e-06 8.09843C 1.12249e-06 8.27094 0.128738 8.40512 0.294255 8.40512L 1.3885 8.40512C 1.55402 8.40512 1.68276 8.27094 1.68276 8.09843L 1.68276 0.306686C 1.69195 0.143759 1.55402 -7.31197e-08 1.3885 -7.31197e-08Z"/>
<path id="path3_fill" d="M 8.2023 0L 7.23678 0C 7.05287 0 6.92414 0.201263 6.92414 0.392942L 6.92414 4.45653C 6.31724 3.70899 5.28736 3.43105 4.18391 3.4023C 4.13793 3.4023 4.10115 3.4023 4.05517 3.4023C 1.5908 3.4023 2.24497e-06 5.17533 2.24497e-06 7.91634C 2.24497e-06 10.5328 1.74713 12.4304 4.21149 12.4304C 6.74943 12.4304 8.42299 10.619 8.42299 7.91634L 8.42299 0.392942C 8.42299 0.201263 8.3862 0 8.2023 0ZM 4.24827 10.8778C 2.56551 10.8778 1.55402 9.76604 1.55402 7.90675C 1.55402 6.01872 2.53793 4.93573 4.24827 4.93573C 5.92184 4.93573 6.87816 5.98997 6.94253 7.90675C 6.94253 9.77562 5.93103 10.8778 4.24827 10.8778Z"/>
<path id="path4_fill" d="M 9.33333 0C 8.09195 0 7.08046 0.498365 6.50115 1.39926C 5.87586 0.479197 4.87356 0 3.64138 0C 1.38851 0 -1.12249e-06 1.45676 -1.12249e-06 3.90067L -1.12249e-06 8.45304C -1.12249e-06 8.64472 0.174714 8.72139 0.358622 8.72139L 1.32414 8.72139C 1.50805 8.72139 1.69196 8.64472 1.69196 8.45304L 1.69196 3.91025C 1.69196 1.95513 2.82299 1.54302 3.75172 1.54302C 4.45977 1.54302 5.62759 2.30973 5.62759 3.21062L 5.62759 8.46262C 5.62759 8.63514 5.75632 8.73098 5.92184 8.73098L 6.0046 8.73098L 6.97012 8.73098L 7.01609 8.73098C 7.18161 8.73098 7.31034 8.63514 7.31034 8.46262L 7.31034 3.20104C 7.31034 2.2714 8.22989 1.54302 9.18621 1.54302C 10.1241 1.54302 11.246 1.95513 11.246 3.91025L 11.246 8.46262C 11.246 8.6543 11.4667 8.73098 11.6506 8.73098L 12.6161 8.73098C 12.8 8.73098 12.9379 8.6543 12.9379 8.46262L 12.9379 3.91025C 12.9563 1.46634 11.5954 0 9.33333 0Z"/>
<path id="path5_fill" d="M 4.03678 0C 1.59081 0 0 1.62927 0 4.25527L 0 8.45304C 0 8.64472 0.220692 8.72139 0.4046 8.72139L 1.37012 8.72139C 1.55403 8.72139 1.69196 8.64472 1.69196 8.45304L 1.69196 4.26486C 1.69196 1.86887 3.38391 1.76345 4.03678 1.74428C 4.68966 1.76345 6.38161 1.86887 6.38161 4.26486L 6.38161 8.46262C 6.38161 8.6543 6.51954 8.73098 6.70345 8.73098L 7.66897 8.73098C 7.85287 8.73098 8.07356 8.6543 8.07356 8.46262L 8.07356 4.26486C 8.07356 1.63885 6.48276 0 4.03678 0Z"/>
<path id="path6_fill" d="M 12.7816 2.0893C 11.8437 0.843387 10.0598 -3.65599e-08 8.0092 -3.65599e-08C 5.49885 -3.65599e-08 3.38391 1.26508 2.74023 2.99978C 1.14943 3.59398 0 5.18491 0 7.05378C 0 9.4306 1.84828 11.357 4.12874 11.357C 4.93793 11.357 5.69195 11.1174 6.32644 10.6957L 6.51954 12.5741C 6.56552 13.0054 7.08966 13.1588 7.34713 12.8137L 9.14023 10.3315C 9.27816 10.3507 9.41609 10.3698 9.55402 10.3698C 10.6851 10.3698 11.6414 9.63187 12.0276 8.5968C 13.9678 8.48179 15.5034 7.0442 15.5034 5.28075C 15.5126 3.75691 14.354 2.48224 12.7816 2.0893Z"/>
</defs>
</svg>
