<?xml version="1.0" encoding="utf-8"?>
<!-- Generator: Adobe Illustrator 21.1.0, SVG Export Plug-In . SVG Version: 6.00 Build 0)  -->
<svg version="1.1" id="Layer_1" xmlns="http://www.w3.org/2000/svg" xmlns:xlink="http://www.w3.org/1999/xlink" x="0px" y="0px"
	 viewBox="0 0 156.8 156.8" style="enable-background:new 0 0 156.8 156.8;" xml:space="preserve">
<style type="text/css">
	.st0{fill:#FFFFFF;}
	.st1{fill:none;}
	.st2{fill:#501D4F;}
	.st3{fill:#EDA118;}
</style>
<path class="st0" d="M150.6,47.9c-4-9.3-9.6-17.7-16.8-24.9c-7.2-7.2-15.6-12.9-24.9-16.8C99.2,2.1,88.9,0,78.4,0
	C67.8,0,57.5,2.1,47.9,6.2c-9.3,4-17.7,9.6-24.9,16.8c-7.2,7.2-12.9,15.6-16.8,24.9C2.1,57.6,0,67.9,0,78.4s2.1,20.9,6.2,30.5
	c4,9.3,9.6,17.7,16.8,24.9c7.2,7.2,15.6,12.9,24.9,16.8c9.7,4.1,20,6.2,30.5,6.2s20.9-2.1,30.5-6.2c9.3-4,17.7-9.6,24.9-16.8
	c7.2-7.2,12.9-15.6,16.8-24.9c4.1-9.7,6.2-20,6.2-30.5S154.7,57.5,150.6,47.9z"/>
<path class="st1" d="M152.4,57.9c0.3,1.1,0.6,2.2,0.8,3.3C153,60.1,152.7,59,152.4,57.9z"/>
<path class="st1" d="M78.4,1.6L78.4,1.6c5.2,0,10.3,0.5,15.3,1.5C88.6,2.1,83.5,1.6,78.4,1.6z"/>
<path class="st1" d="M145.9,41.8c0.6,1.1,1.1,2.2,1.7,3.3C147.1,44,146.5,42.9,145.9,41.8z"/>
<path class="st1" d="M95.5,3.5c1.9,0.4,3.7,0.9,5.5,1.5C99.2,4.4,97.4,3.9,95.5,3.5z"/>
<path class="st1" d="M153.7,63.4c0.4,1.8,0.6,3.6,0.9,5.4C154.3,67,154.1,65.2,153.7,63.4z"/>
<path class="st1" d="M118.1,12.7c-3.2-1.9-6.5-3.6-9.9-5c-1.2-0.5-2.4-1-3.6-1.4c1.2,0.4,2.4,0.9,3.6,1.4
	C111.7,9.1,115,10.8,118.1,12.7z"/>
<path class="st1" d="M148.4,110c0.3-0.6,0.5-1.1,0.7-1.7c1.3-3,2.3-6,3.2-9c-0.9,3.1-1.9,6.1-3.2,9
	C148.9,108.9,148.6,109.4,148.4,110z"/>
<path class="st1" d="M51.4,6.5c-1,0.4-1.9,0.7-2.9,1.2c-3.4,1.5-6.7,3.1-9.9,5c3.2-1.9,6.5-3.6,9.9-5C49.4,7.2,50.4,6.9,51.4,6.5z"
	/>
<path class="st1" d="M152.2,57.1c-0.8-2.9-1.9-5.8-3.1-8.6c-0.2-0.6-0.5-1.1-0.7-1.7c0.3,0.6,0.5,1.1,0.7,1.7
	C150.3,51.3,151.3,54.2,152.2,57.1z"/>
<path class="st1" d="M67.1,154.4c3.7,0.5,7.5,0.8,11.3,0.8c5.2,0,10.3-0.5,15.3-1.5c-5,1-10.1,1.5-15.3,1.5
	C74.6,155.2,70.8,154.9,67.1,154.4z"/>
<path class="st1" d="M119.7,13.7c1,0.7,2.1,1.3,3.1,2.1C121.8,15,120.7,14.3,119.7,13.7z"/>
<path class="st1" d="M101,151.8c-2.4,0.8-4.9,1.4-7.4,1.9C96.1,153.2,98.6,152.5,101,151.8z"/>
<path class="st1" d="M153.2,95.5c-0.3,1.2-0.6,2.5-0.9,3.7C152.6,98,153,96.8,153.2,95.5z"/>
<path class="st1" d="M147.6,111.7c-0.5,1.1-1.1,2.2-1.7,3.3C146.5,113.9,147.1,112.8,147.6,111.7z"/>
<path class="st1" d="M154.6,88c-0.2,1.9-0.5,3.8-0.9,5.7C154,91.8,154.3,89.9,154.6,88z"/>
<path class="st1" d="M78.4,18.6c-33,0-59.8,26.8-59.8,59.8s26.8,59.8,59.8,59.8s59.8-26.8,59.8-59.8S111.4,18.6,78.4,18.6z
	 M71.3,26.9l5.9,0.9l-0.9-5.9h3.9l-0.9,5.9l5.9-0.9v3.9l-5.9-0.9l0.9,12.6h-3.9l0.9-12.6l-5.9,0.9V26.9z M107.3,100.6
	c-1.3,2.2-2.5,4.4-3.7,6.5c0.1,2.5,0.2,5,0.3,7.5c-4.5-1.1-9.1-1.9-13.7-2.4c-5.1,4-9.6,5.9-11.5,6.7l-0.4,0.2l-0.4-0.2
	c-1.9-0.7-6.4-2.6-11.5-6.7c-4.6,0.5-9.2,1.3-13.7,2.4c0.1-2.5,0.2-5,0.3-7.5c-1.2-2.2-2.4-4.4-3.7-6.5c1.8-0.4,3.6-0.8,5.4-1.2
	c-5.9-9.1-10.7-22-11-40.3v-1.2l1.2-0.1c9.3-0.5,14-10.7,14.8-13.4l0.4-1.4l1.3,0.6c4.1,1.8,11.7,2.5,16.9,2.5
	c5.3,0,12.8-0.7,16.9-2.5l1.3-0.6l0.4,1.4c0.8,2.7,5.5,12.9,14.8,13.4l1.2,0.1v1.2c-0.3,18.3-5.1,31.2-11,40.3
	C103.7,99.8,105.5,100.2,107.3,100.6z M125.3,52.2c0,0.6,0,1.1-0.1,1.5c-0.2,0.8-0.5,1.4-0.9,1.9c0.5,0.8,1,1.7,1.4,2.6
	c0.7,1.4,1.3,2.9,1.9,4.4c0-0.7,0-1.5,0.1-2.3c0-1.2,0.1-2.4,0.1-3.5c0.1-2.3,0-4.4,0.2-5.2c2.5,3.9,3.2,7.6,3,10.2
	c0,0.7-0.1,1.3-0.2,1.8s-0.3,1-0.5,1.4c-0.4,0.8-0.8,1.3-1.3,1.6c0.2,0.7,0.4,1.5,0.5,2.2c0.4,1.7,0.7,3.4,0.9,5.2
	c0-0.1,0.1-0.3,0.1-0.4c0.2-0.5,0.3-1.1,0.5-1.7s0.3-1.2,0.5-1.7c0.2-0.6,0.3-1.2,0.5-1.7c0.2-0.6,0.3-1.1,0.5-1.7
	c0.1-0.5,0.3-1,0.4-1.5c0.2-0.9,0.4-1.6,0.6-2c0.7,2.2,1,4.3,1.1,6.2c0,0.9,0,1.8-0.2,2.6c-0.1,0.8-0.3,1.5-0.5,2.2
	s-0.5,1.2-0.7,1.7c-0.3,0.5-0.6,0.9-0.9,1.3c-0.5,0.6-1.1,1-1.6,1.2c0,0.8,0,1.6,0,2.4c-0.1,1.6-0.2,3.2-0.4,4.7c0,0,0-0.1,0.1-0.1
	c0.3-0.5,0.6-1,0.9-1.5c0.6-1.1,1.3-2.1,1.9-3.2c0.6-1,1.2-2,1.6-2.8c0.5-0.8,0.9-1.5,1.1-1.8c0.2,4.8-1,8.4-2.4,10.8
	c-0.8,1.2-1.5,2-2.3,2.6c-0.6,0.5-1.3,0.7-1.8,0.8c-0.2,0.9-0.4,1.9-0.7,2.8c-0.4,1.3-0.8,2.6-1.3,3.8c0.2-0.2,0.4-0.4,0.6-0.6
	s0.4-0.4,0.6-0.7c0.4-0.4,0.9-0.9,1.3-1.3c0.4-0.5,0.9-0.9,1.3-1.4c0.9-0.9,1.6-1.7,2.3-2.4c0.7-0.7,1.2-1.2,1.5-1.5
	c-0.8,4.8-2.9,8.2-4.9,10.1c-1.8,1.8-3.5,2.5-4.8,2.4c-0.5,1-1,2-1.6,3s-1.2,2-1.8,2.9c1.5-1,3.1-2,4.6-3c1-0.7,2-1.4,2.8-1.9
	s1.5-1,1.9-1.1c-1.9,4.5-4.7,7.4-7.2,9c-0.6,0.4-1.2,0.7-1.7,0.9c-0.6,0.2-1.1,0.4-1.6,0.4c-0.8,0.1-1.4,0.1-2-0.1
	c-0.7,0.9-1.5,1.8-2.3,2.6c-0.8,0.8-1.6,1.6-2.4,2.3c0.5-0.2,1.1-0.4,1.7-0.6s1.2-0.4,1.8-0.7c0.6-0.2,1.2-0.4,1.8-0.7
	c2.4-0.9,4.5-1.8,5.4-1.9c-1.5,2-3.1,3.6-4.7,4.8c-0.8,0.6-1.6,1.1-2.3,1.5c-0.8,0.4-1.5,0.7-2.2,1c-1.4,0.5-2.6,0.7-3.6,0.6
	c-0.8-0.1-1.5-0.2-1.9-0.5c-0.7,0.6-1.5,1.1-2.2,1.6c-1.1,0.8-2.2,1.4-3.3,2.1c0.6-0.1,1.2-0.1,1.8-0.2c1.3-0.2,2.7-0.3,3.9-0.5
	c1.3-0.2,2.5-0.4,3.5-0.5s1.8-0.2,2.3-0.2c-0.2,0.2-0.5,0.4-0.7,0.6s-0.5,0.4-0.7,0.6c-0.5,0.4-1,0.7-1.4,1c-1,0.6-1.9,1.1-2.8,1.5
	s-1.8,0.7-2.6,1c-0.9,0.2-1.6,0.4-2.4,0.5c-1.5,0.1-2.7,0-3.7-0.3c-0.8-0.2-1.4-0.6-1.8-1c-0.3,0.1-0.5,0.2-0.8,0.4
	c-1.8,0.8-3.6,1.4-5.2,2c0.5,0.1,1.1,0.1,1.7,0.2c0.7,0.1,1.3,0.2,2,0.2c0.7,0.1,1.3,0.1,2,0.2c1.3,0.1,2.5,0.2,3.6,0.3
	c1,0.1,1.8,0.2,2.3,0.3c-0.6,0.3-1.1,0.6-1.7,0.8c-0.6,0.2-1.1,0.5-1.7,0.7c-1.1,0.4-2.2,0.7-3.2,0.9c-2,0.4-3.8,0.4-5.3,0.2
	c-2.7-0.3-4.4-1.3-5.1-2.4c-1.5,0.3-2.9,0.5-4.1,0.6c-0.4,0-0.8,0.1-1.1,0.1c1,0.7,1.8,1.6,2.3,2.7l-1.8,0.7c-1.1-1.8-3-3-5.2-3
	s-4.2,1.2-5.2,3l-1.8-0.7c0.6-1.1,1.4-2,2.3-2.7c-0.4,0-0.7-0.1-1.1-0.1c-1.2-0.1-2.6-0.3-4.1-0.6c-0.8,1.1-2.5,2.1-5.1,2.4
	c-1.5,0.2-3.3,0.2-5.3-0.2c-1-0.2-2.1-0.5-3.2-0.9c-0.5-0.2-1.1-0.4-1.7-0.7c-0.6-0.3-1.1-0.5-1.7-0.8c0.5-0.1,1.3-0.2,2.3-0.3
	c1-0.1,2.3-0.2,3.6-0.3c0.7-0.1,1.3-0.1,2-0.2s1.4-0.2,2-0.2c0.6-0.1,1.1-0.1,1.7-0.2c-1.7-0.5-3.4-1.2-5.2-2
	c-0.3-0.1-0.5-0.2-0.8-0.4c-0.4,0.4-1,0.7-1.8,1c-1,0.3-2.2,0.4-3.7,0.3c-0.7-0.1-1.5-0.2-2.4-0.5c-0.8-0.2-1.7-0.6-2.6-1
	s-1.9-0.9-2.8-1.5c-0.5-0.3-1-0.7-1.4-1c-0.2-0.2-0.5-0.4-0.7-0.6s-0.5-0.4-0.7-0.6c0.5,0,1.2,0.1,2.3,0.2c1,0.1,2.2,0.3,3.5,0.5
	s2.6,0.3,3.9,0.5c0.6,0.1,1.2,0.1,1.8,0.2c-1.1-0.6-2.2-1.3-3.3-2.1c-0.8-0.5-1.5-1.1-2.2-1.6c-0.5,0.3-1.1,0.5-1.9,0.5
	c-1,0.1-2.2-0.1-3.6-0.6c-0.7-0.2-1.4-0.6-2.2-1c-0.8-0.4-1.5-0.9-2.3-1.5c-1.6-1.2-3.2-2.8-4.7-4.8c0.9,0.2,3,1.1,5.4,1.9
	c0.6,0.2,1.2,0.4,1.8,0.7c0.6,0.2,1.2,0.5,1.8,0.7c0.6,0.2,1.1,0.4,1.7,0.6c-0.8-0.7-1.6-1.5-2.4-2.3s-1.6-1.7-2.3-2.6
	c-0.5,0.2-1.2,0.2-2,0.1c-0.5-0.1-1-0.2-1.6-0.4c-0.6-0.2-1.1-0.5-1.7-0.9c-2.4-1.5-5.2-4.4-7.2-9c0.4,0.2,1.1,0.6,1.9,1.1
	s1.8,1.2,2.8,1.9c1.5,1,3.1,2,4.6,3c-0.6-0.9-1.2-1.9-1.8-2.9c-0.6-1-1.1-2-1.6-3c-1.2,0.1-3-0.6-4.8-2.4c-2-2-4-5.4-4.9-10.1
	c0.3,0.3,0.9,0.8,1.5,1.5c0.7,0.7,1.4,1.6,2.3,2.4c0.4,0.4,0.8,0.9,1.3,1.4c0.4,0.4,0.9,0.9,1.3,1.3c0.2,0.2,0.4,0.4,0.6,0.7
	c0.2,0.2,0.4,0.4,0.6,0.6c-0.5-1.3-0.9-2.5-1.3-3.8c-0.3-0.9-0.5-1.9-0.7-2.8c-0.5-0.1-1.2-0.3-1.8-0.8c-0.8-0.6-1.5-1.4-2.3-2.6
	c-1.4-2.4-2.6-6-2.4-10.8c0.3,0.3,0.7,1,1.1,1.8c0.5,0.8,1.1,1.8,1.6,2.8c0.6,1,1.3,2.1,1.9,3.2c0.3,0.5,0.6,1,0.9,1.5
	c0,0,0,0.1,0.1,0.1c-0.2-1.6-0.3-3.2-0.4-4.7c0-0.8,0-1.6,0-2.4c-0.5-0.2-1.1-0.6-1.6-1.2c-0.3-0.4-0.6-0.8-0.9-1.3
	s-0.5-1.1-0.7-1.7c-0.2-0.7-0.4-1.4-0.5-2.2c-0.1-0.8-0.2-1.7-0.2-2.6c0-1.8,0.3-4,1.1-6.2c0.2,0.4,0.4,1.1,0.6,2
	c0.1,0.5,0.3,0.9,0.4,1.5c0.1,0.5,0.3,1.1,0.5,1.7s0.3,1.2,0.5,1.7c0.2,0.6,0.3,1.2,0.5,1.7c0.2,0.6,0.3,1.1,0.5,1.7
	c0,0.2,0.1,0.3,0.1,0.4c0.2-1.8,0.5-3.5,0.9-5.2c0.2-0.7,0.4-1.5,0.5-2.2c-0.5-0.3-1-0.8-1.3-1.6c-0.2-0.4-0.4-0.9-0.5-1.4
	s-0.2-1.1-0.2-1.8c-0.1-2.7,0.6-6.4,3-10.2c0.1,0.8,0.1,2.9,0.2,5.2c0,1.2,0.1,2.4,0.1,3.5c0,0.8,0.1,1.6,0.1,2.3
	c0.6-1.5,1.2-3,1.9-4.4c0.4-0.9,0.9-1.8,1.4-2.6c-0.4-0.4-0.7-1-0.9-1.9c-0.1-0.4-0.1-0.9-0.1-1.5c0-0.5,0.1-1.1,0.2-1.8
	c0.5-2.5,2.1-5.9,5.4-9c0,0.4-0.2,1.1-0.4,2c-0.2,0.9-0.5,1.9-0.7,3c-0.3,1.1-0.5,2.3-0.8,3.4c-0.2,0.8-0.3,1.5-0.5,2.2
	c0.6-0.8,1.2-1.6,1.8-2.3c1.1-1.3,2.1-2.5,3.2-3.6l0,0c-0.6-1-0.6-2.8,0.5-5.2c1.1-2.3,3.5-5.1,7.4-7.2c-0.1,0.4-0.5,1-0.9,1.8
	s-0.9,1.7-1.5,2.7c-1,1.7-1.9,3.7-2.7,5.3c0.3-0.3,0.7-0.6,1-0.8c0.7-0.6,1.3-1,1.8-1.4c0.6-0.4,1-0.7,1.4-1
	c0.8-0.5,1.2-0.8,1.2-0.8v0.1l0,0c-0.3-0.6-0.1-1.3,0.5-2c0.3-0.4,0.7-0.8,1.3-1.2c0.5-0.4,1.1-0.8,1.8-1.1c1.4-0.7,3.1-1.1,4.9-1.3
	c1.8-0.2,3.7,0,5.4,0.5l0,0c-1.5,1-3,1.9-4.4,2.7c-1.4,0.8-2.8,1.5-4.1,2.1c-0.6,0.3-1.2,0.5-1.8,0.7c-0.6,0.2-1.1,0.3-1.5,0.4
	c-0.8,0.1-1.4,0-1.8-0.4c-0.1,0.1-0.2,0.1-0.3,0.2c-1.4,0.9-3.1,2.1-4.9,3.6c1.6-0.5,3.5-0.9,5.2-0.9c0.5,0,1,0,1.4,0
	c0.5,0,0.9,0,1.3,0.1c0.8,0.1,1.3,0.2,1.7,0.3c-2.9,1.7-5.5,2.8-7.7,3.4c-2.1,0.6-3.8,0.6-4.9,0c-1.1,1.1-2.1,2.3-3.2,3.6
	c-0.6,0.8-1.2,1.5-1.8,2.4c0.6-0.4,1.3-0.8,1.9-1.1c1-0.5,2-0.9,3-1.2c1-0.3,1.9-0.6,2.7-0.7c0.8-0.1,1.4-0.2,1.7-0.2
	C42.2,52,40,53.8,38,54.9c-0.5,0.3-1,0.5-1.5,0.7s-0.9,0.4-1.3,0.5c-0.8,0.2-1.5,0.2-2,0.1c-0.5,0.8-0.9,1.7-1.3,2.6
	c-0.6,1.3-1.2,2.7-1.7,4.1c0.4-0.5,0.9-0.9,1.4-1.4c0.9-0.7,1.8-1.4,2.7-2c1.8-1.1,3.4-1.8,4.2-2c-1.9,3.1-3.6,5.4-5.3,7
	c-0.4,0.4-0.8,0.8-1.2,1.1c-0.4,0.3-0.8,0.6-1.2,0.8C30.1,66.8,29.5,67,29,67c-0.2,0.7-0.4,1.5-0.5,2.2c-0.3,1.6-0.6,3.2-0.8,4.8
	c0,0,0-0.1,0.1-0.1c0.3-0.5,0.6-1,0.9-1.4c0.3-0.5,0.7-0.9,1-1.4c0.3-0.4,0.7-0.9,1.1-1.3s0.7-0.8,1.1-1.1c0.4-0.3,0.7-0.6,1-0.9
	c0.6-0.5,1.2-0.9,1.5-1c-1,3.5-2.2,6.2-3.4,8.2c-0.3,0.5-0.6,1-0.9,1.4s-0.6,0.8-0.9,1.1c-0.6,0.5-1.1,0.9-1.6,1.1
	c0,0.8,0,1.6,0.1,2.4c0.1,1.6,0.2,3.2,0.4,4.8c0-0.1,0-0.2,0.1-0.2c0.2-0.5,0.3-1.1,0.5-1.6s0.4-1.1,0.7-1.6c0.2-0.5,0.5-1,0.7-1.5
	c0.5-1,1.1-1.8,1.5-2.5c0.5-0.7,0.9-1.1,1.2-1.4c0,0.9-0.1,1.8-0.1,2.6c0,0.4-0.1,0.8-0.1,1.2c-0.1,0.4-0.1,0.8-0.1,1.2
	c-0.2,1.5-0.5,2.9-0.9,4c-0.3,1.2-0.8,2.1-1.3,2.9c-0.4,0.7-0.9,1.2-1.4,1.5c0.2,0.9,0.5,1.8,0.7,2.7c0.4,1.4,0.9,2.7,1.4,4
	c0-0.1,0-0.2,0-0.2c0-0.3,0-0.6,0-0.9s0.1-0.6,0.1-0.9c0.1-0.6,0.2-1.2,0.3-1.8c0.1-0.6,0.3-1.1,0.4-1.7c0.3-1.1,0.6-2.1,1-2.8
	c0.3-0.8,0.6-1.4,0.9-1.7c0.8,3.7,1,6.8,0.8,9.3c-0.2,2.3-0.8,4.1-1.6,4.9c0.5,1,1,1.9,1.6,2.9s1.2,2,1.9,3l0,0
	c-0.1-0.6-0.2-1.2-0.2-1.8c0-0.3-0.1-0.6-0.1-0.9s0-0.6,0-0.9c0-0.6,0-1.2,0-1.8c0.1-1.1,0.2-2.2,0.3-3c0.2-0.9,0.3-1.5,0.5-1.9
	c1.6,3.5,2.6,6.5,3,9c0.1,0.6,0.1,1.2,0.2,1.8c0,0.5,0,1.1,0,1.5c-0.1,0.8-0.3,1.4-0.5,1.9c0.7,0.9,1.5,1.7,2.3,2.5
	c0.7,0.8,1.5,1.5,2.3,2.2c-0.2-0.5-0.4-1-0.6-1.5c-0.2-0.6-0.4-1.2-0.5-1.8c-0.2-0.6-0.3-1.2-0.4-1.7c-0.4-2.3-0.5-4.2-0.3-5
	c2.4,3.1,4.1,5.8,5,8.2c0.5,1.2,0.8,2.3,0.9,3.2c0.1,0.7,0.1,1.4-0.1,1.9c0.7,0.6,1.5,1.1,2.2,1.6c1,0.7,2,1.3,3,1.8
	c-0.3-0.4-0.5-0.8-0.8-1.2c-0.7-1.1-1.3-2.2-1.7-3.3c-0.5-1.1-0.8-2.1-1.1-3c-0.3-0.8-0.4-1.5-0.4-2c0.2,0.2,0.4,0.3,0.6,0.5
	s0.4,0.3,0.6,0.5c0.4,0.3,0.7,0.6,1,0.9c0.7,0.6,1.3,1.2,1.9,1.8c0.6,0.6,1.1,1.2,1.6,1.7s0.9,1.1,1.3,1.6c0.8,1,1.3,2.1,1.6,3
	c0.2,0.7,0.4,1.3,0.4,1.8c0.3,0.1,0.6,0.3,0.9,0.4c1.7,0.7,3.3,1.3,4.9,1.8c-0.3-0.3-0.7-0.6-1-0.9c-0.4-0.5-0.9-0.9-1.3-1.4
	s-0.8-1-1.2-1.4c-0.7-0.9-1.3-1.9-1.7-2.7c-0.4-0.8-0.7-1.5-0.8-1.9c3.6,1.8,6.4,3.6,8.3,5.4c1.7,1.5,2.8,3,3.1,4.3
	c1.5,0.3,2.8,0.5,4,0.6c1.8,0.2,3.2,0.3,4.1,0.3s1.4,0,1.5,0s0.6,0,1.5,0s2.4-0.1,4.1-0.3c1.2-0.1,2.5-0.3,4-0.6
	c0.3-1.3,1.4-2.8,3.1-4.3c2-1.8,4.7-3.5,8.3-5.4c-0.1,0.4-0.4,1.1-0.8,1.9s-1,1.7-1.7,2.7c-0.4,0.5-0.8,1-1.2,1.4
	c-0.4,0.5-0.9,0.9-1.3,1.4c-0.3,0.3-0.7,0.6-1,0.9c1.6-0.5,3.2-1.1,4.9-1.8c0.3-0.1,0.6-0.2,0.9-0.4c0-0.5,0.1-1.1,0.4-1.8
	c0.3-0.9,0.9-1.9,1.6-3c0.4-0.5,0.8-1.1,1.3-1.6c0.5-0.6,1-1.2,1.6-1.7c0.6-0.6,1.2-1.2,1.9-1.8c0.3-0.3,0.7-0.6,1-0.9
	c0.2-0.2,0.4-0.3,0.6-0.5s0.4-0.3,0.6-0.5c0,0.4-0.1,1.1-0.4,2c-0.2,0.9-0.6,1.9-1.1,3s-1.1,2.2-1.7,3.3c-0.2,0.4-0.5,0.8-0.8,1.2
	c1-0.6,2-1.2,3-1.8c0.7-0.5,1.5-1,2.2-1.6c-0.1-0.5-0.2-1.2-0.1-1.9c0.1-0.9,0.4-2,0.9-3.2c1-2.4,2.6-5.1,5-8.2
	c0.2,0.8,0.1,2.7-0.3,5c-0.1,0.6-0.2,1.2-0.4,1.7c-0.2,0.6-0.3,1.2-0.5,1.8c-0.2,0.5-0.4,1-0.6,1.5c0.8-0.7,1.5-1.4,2.3-2.2
	c0.8-0.8,1.5-1.6,2.3-2.5c-0.3-0.5-0.5-1.1-0.5-1.9c-0.1-0.5-0.1-1,0-1.5c0-0.5,0.1-1.1,0.2-1.8c0.4-2.5,1.4-5.5,3-9
	c0.2,0.4,0.3,1,0.5,1.9c0.1,0.8,0.3,1.9,0.3,3c0,0.6,0,1.2,0,1.8c0,0.3,0,0.6,0,0.9s-0.1,0.6-0.1,0.9c-0.1,0.6-0.1,1.2-0.2,1.8l0,0
	c0.7-1,1.3-1.9,1.9-3c0.6-0.9,1.1-1.9,1.6-2.9c-0.9-0.9-1.4-2.6-1.6-4.9c-0.2-2.5,0.1-5.5,0.8-9.3c0.2,0.3,0.6,0.9,0.9,1.7
	c0.3,0.8,0.7,1.8,1,2.8c0.1,0.5,0.3,1.1,0.4,1.7s0.2,1.2,0.3,1.8c0,0.3,0.1,0.6,0.1,0.9s0,0.6,0,0.9c0,0.1,0,0.2,0,0.2
	c0.5-1.3,1-2.6,1.4-4c0.3-0.9,0.5-1.8,0.7-2.7c-0.5-0.3-1-0.8-1.4-1.5c-0.5-0.8-1-1.8-1.3-2.9c-0.4-1.2-0.6-2.5-0.9-4
	c-0.1-0.4-0.1-0.8-0.1-1.2c-0.1-0.4-0.1-0.8-0.1-1.2c0-0.9-0.1-1.7-0.1-2.6c0.3,0.2,0.7,0.7,1.2,1.4c0.5,0.7,1,1.5,1.5,2.5
	c0.3,0.5,0.5,1,0.7,1.5s0.5,1.1,0.7,1.6s0.4,1.1,0.5,1.6c0,0.1,0,0.2,0.1,0.2c0.2-1.6,0.4-3.2,0.4-4.8c0-0.8,0.1-1.6,0.1-2.4
	c-0.5-0.2-1.1-0.5-1.6-1.1c-0.3-0.3-0.6-0.7-0.9-1.1s-0.6-0.9-0.9-1.4c-1.2-2-2.4-4.7-3.4-8.2c0.3,0.2,0.9,0.5,1.5,1
	c0.3,0.3,0.6,0.6,1,0.9s0.7,0.7,1.1,1.1s0.7,0.8,1.1,1.3c0.3,0.4,0.7,0.9,1,1.4s0.6,0.9,0.9,1.4c0,0,0,0.1,0.1,0.1
	c-0.2-1.6-0.4-3.2-0.8-4.8c-0.2-0.8-0.3-1.5-0.5-2.2c-0.5,0-1.2-0.2-1.8-0.6c-0.4-0.2-0.8-0.5-1.2-0.8c-0.4-0.3-0.8-0.7-1.2-1.1
	c-1.7-1.6-3.4-3.9-5.3-7c0.7,0.1,2.4,0.8,4.2,2c0.9,0.6,1.8,1.3,2.7,2c0.5,0.4,1,0.9,1.4,1.4c-0.5-1.4-1.1-2.8-1.7-4.1
	c-0.4-0.9-0.9-1.8-1.3-2.6c-0.6,0.1-1.2,0.1-2-0.1c-0.4-0.1-0.9-0.3-1.3-0.5c-0.5-0.2-1-0.4-1.5-0.7c-2-1.1-4.2-2.9-6.7-5.4
	c0.4,0,1,0,1.7,0.2c0.8,0.2,1.7,0.4,2.7,0.7c1,0.3,2,0.8,3,1.2c0.7,0.4,1.3,0.7,1.9,1.1c-0.6-0.8-1.2-1.6-1.8-2.4
	c-1-1.3-2.1-2.5-3.2-3.6c-1,0.6-2.8,0.5-4.9,0c-2.2-0.6-4.7-1.7-7.7-3.4c0.3-0.1,0.9-0.2,1.7-0.3c0.4,0,0.8-0.1,1.3-0.1s0.9,0,1.4,0
	c1.7,0.1,3.6,0.4,5.2,0.9c-1.8-1.5-3.4-2.7-4.9-3.6c-0.1-0.1-0.2-0.1-0.3-0.2c-0.4,0.4-1,0.5-1.8,0.4c-0.5-0.1-1-0.2-1.5-0.4
	c-0.6-0.2-1.2-0.4-1.8-0.7c-1.3-0.6-2.6-1.3-4.1-2.1c-1.4-0.8-2.9-1.7-4.4-2.7l0,0c1.7-0.5,3.6-0.7,5.4-0.5s3.5,0.7,4.9,1.3
	c0.7,0.3,1.3,0.7,1.8,1.1s0.9,0.8,1.3,1.2c0.6,0.7,0.8,1.4,0.5,2l0,0v-0.1c0,0,0.4,0.3,1.2,0.8c0.4,0.3,0.9,0.6,1.4,1
	s1.2,0.9,1.8,1.4c0.3,0.3,0.6,0.5,1,0.8c-0.8-1.6-1.8-3.5-2.7-5.3c-0.5-1-1.1-1.9-1.5-2.7c-0.4-0.8-0.8-1.4-0.9-1.8
	c3.9,2.1,6.3,4.9,7.4,7.2c1.1,2.3,1.1,4.2,0.5,5.2l0,0c1.1,1.1,2.2,2.3,3.2,3.6c0.6,0.7,1.2,1.5,1.8,2.3c-0.2-0.7-0.3-1.4-0.5-2.2
	c-0.3-1.1-0.5-2.3-0.8-3.4c-0.2-1.1-0.5-2.1-0.7-3s-0.4-1.6-0.4-2c3.3,3.1,4.8,6.4,5.4,9C125.2,51.1,125.2,51.7,125.3,52.2z"/>
<path class="st1" d="M16.8,124.3c-0.5-0.7-1-1.4-1.5-2.1C15.8,122.9,16.3,123.6,16.8,124.3z"/>
<path class="st1" d="M56.2,4.8c0.9-0.3,1.8-0.5,2.6-0.7C58,4.3,57.1,4.6,56.2,4.8z"/>
<path class="st1" d="M34,15.7c1-0.7,2-1.4,3.1-2.1C36,14.3,35,15,34,15.7z"/>
<path class="st1" d="M58.9,152.7c-0.9-0.2-1.8-0.5-2.6-0.7C57.1,152.2,58,152.5,58.9,152.7z"/>
<path class="st1" d="M62.7,153.6c-1-0.2-1.9-0.4-2.9-0.7C60.8,153.2,61.7,153.4,62.7,153.6z"/>
<path class="st0" d="M57.1,100.6c-0.1,0-0.3,0-0.4,0.1c0.1,0.6,0.2,1.2,0.3,1.9c0.2,0.9,0.3,1.7,0.5,2.6c0.4-0.1,0.7-0.1,1.1-0.2
	c0-0.2-0.1-0.4-0.1-0.6c-0.1-0.4-0.1-0.8-0.2-1.1c0.3,0,0.5-0.1,0.8-0.1c0.5-0.1,1-0.2,1.5-0.2c0.1,0,0.1,0,0.2,0
	c0-0.3-0.1-0.6-0.1-0.9c-0.2,0-0.5,0.1-0.7,0.1c-0.5,0.1-1,0.2-1.4,0.2c-0.1,0-0.2,0-0.3,0c0-0.2-0.1-0.3-0.1-0.5s-0.1-0.3-0.1-0.5
	c0.4-0.1,0.8-0.1,1.2-0.2c0.5-0.1,1-0.2,1.6-0.2c0-0.3-0.1-0.6-0.1-0.9c-0.7,0.1-1.4,0.2-2,0.3C58,100.5,57.6,100.6,57.1,100.6z"/>
<path class="st0" d="M63.5,104.3c0.4,0,0.7-0.1,1.1-0.1c-0.2-1.5-0.4-3-0.5-4.5c-0.4,0-0.7,0.1-1.1,0.1
	C63.1,101.3,63.3,102.8,63.5,104.3z"/>
<path class="st0" d="M68.8,99.2c-0.7,0.1-1.3,0.1-2,0.2c0.1,1.5,0.3,3,0.4,4.5c0.6-0.1,1.3-0.1,1.9-0.2c1.5-0.1,2.6-1.2,2.5-2.5l0,0
	C71.6,100,70.4,99,68.8,99.2z M69.1,102.8c-0.3,0-0.6,0-0.8,0.1c-0.1-0.9-0.2-1.8-0.2-2.7c0.3,0,0.6,0,0.9-0.1
	c0.9-0.1,1.6,0.5,1.6,1.3l0,0C70.5,102.1,70,102.7,69.1,102.8z"/>
<path class="st0" d="M77.9,102.5c-0.9,0-1.8,0-2.7,0c0-0.3,0-0.6,0-1c0.8,0,1.6,0,2.4,0c0-0.3,0-0.6,0-0.9c-0.8,0-1.6,0-2.4,0
	c0-0.3,0-0.6,0-0.9c0.9,0,1.8,0,2.7,0c0-0.3,0-0.6,0-0.9c-1.3,0-2.6,0-3.9,0.1c0.1,1.5,0.1,3,0.2,4.6c1.3,0,2.5-0.1,3.8-0.1
	C77.9,103,77.9,102.7,77.9,102.5z"/>
<path class="st0" d="M82.1,102.6c-0.6,0-1-0.2-1.5-0.6c-0.2,0.2-0.4,0.5-0.7,0.7c0.6,0.5,1.3,0.8,2.1,0.8c1.1,0,1.8-0.4,1.9-1.3l0,0
	c0-0.8-0.5-1.2-1.5-1.4c-0.9-0.2-1.1-0.3-1.1-0.6l0,0c0-0.2,0.2-0.4,0.7-0.4c0.4,0,0.9,0.2,1.3,0.5c0.2-0.2,0.4-0.5,0.6-0.7
	c-0.5-0.4-1.1-0.6-1.9-0.7c-1.1,0-1.8,0.5-1.8,1.3l0,0c0,0.9,0.6,1.2,1.6,1.4c0.8,0.2,1,0.4,1,0.6l0,0
	C82.8,102.4,82.6,102.6,82.1,102.6z"/>
<path class="st0" d="M93.9,100.7c0-0.3,0.1-0.6,0.1-0.9c-1.3-0.2-2.6-0.3-3.9-0.4c-0.1,1.5-0.3,3-0.4,4.5c1.3,0.1,2.5,0.3,3.7,0.4
	c0-0.3,0.1-0.6,0.1-0.9c-0.9-0.1-1.8-0.2-2.7-0.3c0-0.3,0.1-0.6,0.1-1c0.8,0.1,1.6,0.2,2.4,0.3c0-0.3,0.1-0.6,0.1-0.9
	c-0.8-0.1-1.6-0.2-2.4-0.3c0-0.3,0.1-0.6,0.1-0.9C92.1,100.4,93,100.6,93.9,100.7z"/>
<path class="st0" d="M100.2,101.7c0.1-0.3,0.1-0.6,0.2-0.9c-0.3,0-0.5-0.1-0.8-0.1c-0.5-0.1-0.9-0.2-1.4-0.2
	c-0.7-0.1-1.4-0.2-2.1-0.3c0,0.3-0.1,0.6-0.1,0.9c0.5,0.1,1,0.2,1.5,0.2l0,0c-0.1,0.9-0.3,1.7-0.4,2.6c-0.1,0.3-0.1,0.7-0.2,1
	c0.3,0,0.5,0.1,0.8,0.1c0.1,0,0.2,0,0.3,0c0-0.1,0.1-0.3,0.1-0.4c0.1-0.8,0.3-1.7,0.4-2.5c0-0.2,0.1-0.4,0.1-0.6
	c0.1,0,0.2,0,0.3,0.1C99.4,101.5,99.8,101.6,100.2,101.7z"/>
<path class="st0" d="M59.1,107.7c0.4-0.1,0.8,0,1.3,0.2c0.1-0.3,0.3-0.6,0.4-0.8c-0.5-0.3-1.2-0.4-1.9-0.3c-1,0.2-1.6,0.8-1.4,1.7
	l0,0c0.2,0.9,0.8,1,1.8,1.1c0.8,0.1,1,0.2,1,0.4l0,0c0,0.3-0.2,0.5-0.6,0.5c-0.5,0.1-1,0-1.5-0.3c-0.2,0.3-0.3,0.5-0.5,0.8
	c0.6,0.4,1.4,0.5,2.1,0.4c1-0.2,1.6-0.8,1.5-1.7l0,0c-0.1-0.8-0.7-1-1.7-1.1c-0.9-0.1-1.1-0.1-1.1-0.4l0,0
	C58.5,108,58.7,107.8,59.1,107.7z"/>
<path class="st0" d="M66.8,109.3c-0.3,0.2-0.5,0.4-1,0.4c-0.2,0-0.4,0-0.6,0c-0.4-0.1-0.7-0.4-0.8-0.7c-0.1-0.1-0.1-0.3-0.1-0.5l0,0
	c-0.1-0.4,0.1-0.8,0.3-1.1c0.2-0.3,0.5-0.4,0.9-0.5c0.5-0.1,0.9,0.1,1.3,0.4c0.2-0.3,0.4-0.5,0.6-0.8c-0.5-0.4-1.1-0.6-2-0.5
	c-0.6,0.1-1.1,0.3-1.5,0.7c-0.3,0.3-0.6,0.7-0.6,1.2c-0.1,0.3-0.1,0.5,0,0.8l0,0c0.2,1.3,1.3,2.2,2.7,2c0.2,0,0.3,0,0.4-0.1
	c0.5-0.1,0.9-0.4,1.2-0.7c0.1-0.1,0.1-0.2,0.2-0.2c-0.2-0.2-0.5-0.4-0.7-0.6C66.9,109.1,66.8,109.2,66.8,109.3z"/>
<path class="st0" d="M69.5,105.6c0.1,1.5,0.2,3,0.3,4.6c0.3,0,0.7-0.1,1-0.1c-0.1-1.5-0.2-3-0.3-4.6
	C70.2,105.6,69.9,105.6,69.5,105.6z"/>
<path class="st0" d="M76.7,105.3c-1.2,0-2.4,0.1-3.7,0.1c0.1,1.5,0.1,3,0.2,4.6c1.2-0.1,2.4-0.1,3.6-0.1c0-0.3,0-0.6,0-0.9
	c-0.9,0-1.7,0-2.6,0.1c0-0.3,0-0.6,0-1c0.7,0,1.5,0,2.2-0.1c0-0.3,0-0.6,0-0.9c-0.8,0-1.5,0-2.3,0.1c0-0.3,0-0.6,0-0.9
	c0.9,0,1.7-0.1,2.6-0.1C76.7,105.9,76.7,105.6,76.7,105.3z"/>
<path class="st0" d="M82.2,105.4c0,0.9-0.1,1.9-0.1,2.8c-0.7-1-1.4-1.9-2.2-2.9c-0.3,0-0.7,0-1,0c0,1.5,0,3,0,4.6c0.3,0,0.7,0,1,0
	c0-1,0-1.9,0-2.9c0.8,1,1.5,2,2.2,3c0.3,0,0.6,0,0.9,0c0.1-1.5,0.1-3,0.2-4.6C82.9,105.4,82.5,105.4,82.2,105.4z"/>
<path class="st0" d="M87.5,110.2c0.1-1.2,0.2-2.4,0.3-3.6c0.5,0,1,0.1,1.5,0.1c0-0.3,0.1-0.6,0.1-0.9c-1.3-0.1-2.7-0.2-4-0.3
	c0,0.3,0,0.6-0.1,0.9c0.5,0,1,0.1,1.5,0.1c-0.1,1.2-0.2,2.4-0.3,3.6C86.8,110.2,87.1,110.2,87.5,110.2z"/>
<path class="st0" d="M91.2,108.2c-0.1,0.6-0.1,1.3-0.2,1.9c0,0.2,0,0.3-0.1,0.5c0.3,0,0.7,0.1,1,0.1c0.1-0.5,0.1-1.1,0.2-1.6
	c0.1-0.7,0.2-1.3,0.2-2c0-0.3,0.1-0.6,0.1-0.9c-0.4,0-0.7-0.1-1.1-0.1C91.4,106.8,91.3,107.5,91.2,108.2z"/>
<path class="st0" d="M95.5,110.2c0.7,0.1,1.3,0.2,2,0.3c0.1,0.4,0.2,0.7,0.2,1.1c0.4,0.1,0.7,0.1,1.1,0.2c-0.4-1.6-0.8-3.3-1.2-4.9
	c-0.3-0.1-0.7-0.1-1-0.2c-0.9,1.4-1.8,2.8-2.7,4.2c0.3,0,0.7,0.1,1,0.2C95.1,110.8,95.3,110.5,95.5,110.2z M96.9,108
	c0.1,0.5,0.3,1,0.4,1.6c-0.4-0.1-0.8-0.1-1.2-0.2C96.3,108.9,96.6,108.4,96.9,108z"/>
<path class="st0" d="M68.2,66.9c-2-0.1-2-0.4-2-1.8V57c-1.3,0.7-2.7,1.1-4.2,1.3v0.4c1.5,0,2.1,0.7,2.1,1.9v4.1
	c0,2.1-0.5,2.1-2.1,2.2v0.4h6.2V66.9z"/>
<path class="st0" d="M72.7,67.5c3.1,0,4.4-1.8,4.4-3.2c0-1.6-1.1-2.3-2.4-2.9c0.9-0.4,1.9-1,1.9-2.1c0-1.8-2.1-2.3-3.5-2.3
	c-1.8,0-3.8,0.9-3.8,3c0,1.1,0.7,1.8,1.6,2.4c-1,0.6-2.2,1.3-2.2,2.6C68.7,67,71.1,67.5,72.7,67.5z M72.8,57.7c1,0,2.2,0.5,2.2,1.7
	c0,0.9-0.4,1.3-1.1,1.8c-1-0.4-2.8-0.9-2.8-2.2C71,58,72,57.7,72.8,57.7z M71.6,62.7l1.4,0.5c0.9,0.4,2.3,0.8,2.3,2
	c0,1.1-1.3,1.7-2.2,1.7c-1.4,0-2.4-0.7-2.4-2.2C70.6,63.9,71,63.3,71.6,62.7z"/>
<path class="st0" d="M86.5,61.8c0-2.5-1.6-4.8-4.3-4.8c-2.2,0-4,1.4-4,3.7c0,1.7,1,3,2.8,3c1.2,0,2.3-0.6,3.1-1.5
	c0,3.9-1.2,4.6-2.1,4.6c-1.2,0-0.4-1.9-1.9-1.9c-0.6,0-1.1,0.3-1.1,1c0,1,1.3,1.6,2.5,1.6C84.4,67.5,86.5,64.6,86.5,61.8z M82,62.7
	c-1.2,0-1.6-1.3-1.6-2.4c0-1.2,0.4-2.8,1.8-2.8c1.7,0,1.8,2.6,1.9,3.8C83.6,62,82.9,62.7,82,62.7z"/>
<path class="st0" d="M87.8,62.5c0,3,1.9,5,4.1,5c2.1,0,4.1-2.1,4.1-5.1c0-3.6-2.2-5.4-4-5.4C89.8,57,87.8,59.1,87.8,62.5z M92,57.5
	c1,0,1.9,1,1.9,4.9c0,1.3-0.1,4.5-1.9,4.5c-1.2,0-1.9-1.4-1.9-4.8C90,61,90.2,57.5,92,57.5z"/>
<path class="st0" d="M17.7,52.1L15,50.9c0.2-0.5,0.6-0.9,2.5-0.9h1.8c0.4,0,0.8,0,1.2-0.1l1.4-3l-0.4-0.2c-0.5,1-1.5,1.1-2.5,1.1
	l-1.6,0.1c-0.5,0-1,0-1.4,0.3c0.3-1.3,0.2-2.7-1.1-3.3c-1.3-0.6-2.7,0.1-3.5,1.9L9,52l0.4,0.2c0.4-0.9,0.8-1,1.6-0.7l5.8,2.6
	c0.8,0.4,1,0.8,0.6,1.7l0.4,0.2l2-4.3l-0.4-0.2C19,52.3,18.6,52.5,17.7,52.1z M14.5,50.6l-2.6-1.2c-0.7-0.3-1-0.5-0.6-1.3
	c0.6-1.3,1.3-1.8,2.6-1.2c1.3,0.6,1.6,1.5,0.7,3.5L14.5,50.6z"/>
<path class="st0" d="M19.3,42.2c2.4,1.7,5.1,1.4,6.8-1c1.8-2.5,0.8-5.4-1.4-6.9c-2.4-1.7-5.1-1.4-6.9,1C16.2,37.7,17,40.5,19.3,42.2
	z M18.3,35.5c0.8-1.2,2.4-1.3,5.1,0.7c1.5,1,3.6,2.8,2.2,4.8c-0.8,1.2-2.4,1.2-5.1-0.7C18,38.4,17.5,36.8,18.3,35.5z"/>
<path class="st0" d="M26.3,27.9l3.4,3.8c1.4,1.6,1.4,1.8,0.7,2.8l0.3,0.3l2.5-2.2l-0.3-0.3c-1,0.7-1.2,0.6-2.6-1l-3.6-4l0,0l7.8,4.2
	l0.4-0.3l-3.5-8.4l0,0l4.6,5.1c0.6,0.7,0.6,1.1-0.1,1.8l0.3,0.3l3.5-3.2l-0.3-0.3c-0.7,0.6-1.1,0.6-1.8,0l-4.3-4.7
	c-0.7-0.7-0.5-1.1,0.1-1.8l-0.3-0.3l-2.8,2.5l2.4,6l-5.6-3.1l-2.9,2.6l0.3,0.3C25.2,27.3,25.7,27.2,26.3,27.9z"/>
<path class="st0" d="M47.7,19.4l-6.1-5.6l-1.4,1.5l1.3,7.2c0.2,1.1,0.3,1.8-0.6,2.8l0.2,0.4l3-1.8l-0.2-0.4
	c-0.5,0.3-1.2,0.3-1.5-0.2c-0.2-0.3-0.3-0.7-0.3-1.1l-0.2-0.9l2.9-1.7l1.2,1.1c0.2,0.2,0.4,0.4,0.5,0.6c0.2,0.3,0.1,0.6-0.6,1
	l0.2,0.4l4-2.4l-0.2-0.4C48.9,20.6,48.4,20.1,47.7,19.4z M41.8,20.7L41,16.3l3.3,3L41.8,20.7z"/>
<path class="st0" d="M50.4,11.3l2.1,5.7c0.4,1.1,0.3,1.6-0.8,2.2l0.1,0.4l3.5-1.3l-0.1-0.4c-1.4,0.2-1.7,0-2.1-1.4l-1.7-4.8l7.5,5.3
	l1.1-0.4l-2.5-6.9c-0.4-1.1-0.5-1.6,0.7-2.2l-0.1-0.4l-3.3,1.2l0.1,0.4c1.3-0.3,1.6,0.2,2,1.3l1.5,4.1l-6.7-4.7l-3.2,1.1l0.1,0.4
	C49.2,10.9,49.9,11,50.4,11.3z"/>
<path class="st0" d="M75.4,14.5c1.9-0.1,3.1-1.2,3.9-2.9l-0.4-0.2c-0.6,1-1.4,2-2.7,2c-1.5,0.1-3.1-1.2-3.3-4.4
	c-0.1-1.5,0.2-4.1,2.3-4.2c1.5-0.1,2.7,1.2,3.3,2.5l0.6-0.2l-0.9-2.9l-0.1,0.1c-0.3,0.2-0.6,0.3-1,0.4c-0.3,0-0.5-0.1-0.9-0.2
	c-0.3-0.1-0.7-0.2-1.2-0.1c-2.7,0.1-4.4,2.9-4.3,5.6C70.8,12.5,72.7,14.6,75.4,14.5z"/>
<path class="st0" d="M84.8,14c-0.6-0.1-1.1-0.5-1.1-1.1c0-0.4,0.2-0.7,0.4-1.1l0.4-0.8l3.3,0.4l0.3,1.6c0,0.2,0.1,0.5,0.1,0.8
	c-0.1,0.4-0.3,0.5-1.1,0.5L87,14.7l4.6,0.6l0.1-0.4c-1.2-0.2-1.2-0.9-1.4-1.9l-1.4-8.1l-2,0.4l-3.4,6.5c-0.5,1-0.9,1.6-2.2,1.8
	L81.2,14l3.5,0.4L84.8,14z M87,6.5l0.8,4.4l-2.9-0.4L87,6.5z"/>
<path class="st0" d="M98.9,7.9l-2.2,7.2c-0.3,0.9-0.7,1.1-1.6,0.8L95,16.3l4.5,1.4l0.1-0.4c-0.9-0.3-1.1-0.7-0.9-1.5l2.2-7.2
	c1.2,0.4,2,1.9,2.3,3.1h0.5l0.1-2.7l-7.6-2.3L94.8,9l0.4,0.3C96.3,8.4,97.6,7.7,98.9,7.9z"/>
<path class="st0" d="M103.4,19l4.2,2.2l0.2-0.4c-0.8-0.4-1-0.8-0.6-1.7l1.4-2.7l3.2,1.6l-1.4,2.7c-0.4,0.8-0.9,0.9-1.7,0.5l-0.2,0.4
	l4.2,2.2l0.2-0.4c-0.8-0.4-1-0.8-0.6-1.7l2.9-5.6c0.4-0.8,0.9-0.9,1.7-0.5l0.2-0.4l-4.2-2.2l-0.2,0.4c0.8,0.4,1,0.8,0.6,1.7
	l-1.3,2.4l-3.2-1.6l1.3-2.4c0.4-0.8,0.9-0.9,1.7-0.5l0.2-0.4l-4.2-2.2l-0.2,0.4c0.8,0.4,1,0.8,0.6,1.7l-2.9,5.6
	c-0.4,0.8-0.9,0.9-1.7,0.5L103.4,19z"/>
<path class="st0" d="M125.8,27.7c1.8-2.3,1.7-5-0.6-6.9c-2.3-1.9-5.2-1.2-7,1c-1.8,2.3-1.7,5,0.6,6.8
	C121.1,30.6,124.1,29.8,125.8,27.7z M120.1,23.2c2-2.5,3.6-2.9,4.8-1.9c1.1,0.9,1.2,2.4-1,5.1c-1.1,1.4-3,3.4-4.9,1.9
	C117.9,27.3,118,25.8,120.1,23.2z"/>
<path class="st0" d="M131.8,29.6l-4.8,4.1c-0.7,0.6-1.1,0.5-1.8-0.2l-0.3,0.3l5.2,6.1l2.5-1.1l-0.1-0.3c-1.5,0-3.3-0.4-4.3-1.6
	c-0.6-0.7-0.4-1,0.2-1.5l4.8-4.1c0.7-0.6,1.1-0.5,1.8,0.2l0.3-0.3l-3.1-3.6l-0.3,0.3C132.5,28.6,132.5,29,131.8,29.6z"/>
<path class="st0" d="M139,38.9l-5.4,3.4c-0.8,0.5-1.2,0.4-1.7-0.4l-0.4,0.2l2.5,4l0.4-0.2c-0.5-0.8-0.4-1.2,0.3-1.7l5.4-3.4
	c0.8-0.5,1.2-0.4,1.7,0.4l0.4-0.2l-2.5-4l-0.4,0.2C139.9,38,139.8,38.4,139,38.9z"/>
<path class="st0" d="M147.7,51.9c-0.3-0.2-0.5-0.4-0.7-0.8c-0.1-0.2-0.1-0.5-0.2-0.9c0-0.3-0.1-0.7-0.3-1.2c-1.1-2.5-4.3-3.1-6.8-2
	c-2.3,1-3.6,3.6-2.5,6c0.8,1.8,2.2,2.5,4.1,2.6l0.1-0.4c-1.2-0.2-2.3-0.6-2.9-1.8c-0.6-1.4,0-3.3,2.9-4.6c1.4-0.6,3.9-1.2,4.7,0.6
	c0.6,1.4-0.2,2.9-1.1,4l0.4,0.5l2.3-1.9V51.9z"/>
<path class="st0" d="M32.5,126c0.7-0.6,1.1-0.6,1.8,0.1l0.3-0.3l-3.2-3.5l-0.3,0.3c0.6,0.7,0.7,1.1,0,1.8l-2,1.9l-2.4-2.6l2-1.9
	c0.7-0.6,1.1-0.6,1.8,0.1l0.3-0.3l-3.2-3.5l-0.3,0.3c0.6,0.7,0.7,1.1,0,1.8l-4.7,4.3c-0.7,0.6-1.1,0.6-1.8-0.1l-0.3,0.3l3.2,3.5
	l0.3-0.3c-0.6-0.7-0.7-1.1,0-1.8l2.2-2l2.4,2.6l-2.2,2c-0.7,0.6-1.1,0.6-1.8-0.1l-0.3,0.3l3.2,3.5l0.3-0.3c-0.6-0.7-0.7-1.1,0-1.8
	L32.5,126z"/>
<path class="st0" d="M40.4,130.4l-3.7-2.9l-0.3,0.3c0.7,0.6,0.8,1,0.3,1.7l-3.9,5c-0.6,0.7-1,0.7-1.8,0.2l-0.3,0.3l3.7,2.9l0.3-0.3
	c-0.7-0.6-0.8-1-0.3-1.7l3.9-5c0.6-0.7,1-0.7,1.8-0.2L40.4,130.4z"/>
<path class="st0" d="M47.9,135c-0.2-0.2-0.5-0.5-0.8-0.7c-2.5-1.4-5.5,0-6.8,2.4c-1.4,2.5-0.8,5,1.7,6.4c0.6,0.4,1.2,0.5,1.9,0.7
	c0.8,0.2,0.9,0.2,1.7,0.6l1-1.7c0.5-0.9,0.7-1.1,1.7-0.7l0.3-0.4l-3.9-2.2l-0.3,0.4c0.9,0.6,1,0.8,0.5,1.7c-0.6,1.1-1.3,1.9-2.6,1.2
	c-1.3-0.7-1.6-2.3,0.1-5.2c1.6-2.9,3.4-3.3,4.5-2.7c1,0.6,1.3,1.7,1.6,3.7l0.5,0.1l0.7-2.8c-0.3,0-0.9,0-1.2-0.2
	C48.3,135.4,48.1,135.2,47.9,135z"/>
<path class="st0" d="M58.6,140c0.9,0.3,1.1,0.7,0.8,1.6l-0.9,2.6l-3.4-1.1l0.9-2.6c0.3-0.9,0.7-1,1.6-0.8l0.1-0.4l-4.5-1.5l-0.1,0.4
	c0.9,0.3,1.1,0.7,0.8,1.6l-2,6c-0.3,0.9-0.7,1-1.6,0.8l-0.1,0.4l4.5,1.5l0.1-0.4c-0.9-0.3-1.1-0.7-0.8-1.6l0.9-2.8l3.4,1.1l-0.9,2.8
	c-0.3,0.9-0.7,1-1.6,0.8l-0.1,0.4l4.5,1.5l0.1-0.4c-0.9-0.3-1.1-0.7-0.8-1.6l2-6c0.3-0.9,0.7-1,1.6-0.8l0.1-0.4l-4.5-1.5L58.6,140z"
	/>
<path class="st0" d="M76.4,146.3l-0.8-0.3c-0.8-0.3-2-0.6-1.9-1.7c0-0.9,0.8-1.4,1.7-1.4c1.3,0,2.6,1.5,3.2,2.5l0.5-0.2l-0.8-2.9
	c-0.2,0.2-0.7,0.5-1,0.5c-0.2,0-0.4-0.1-0.5-0.2c-0.5-0.2-0.9-0.3-1.4-0.3c-1.6-0.1-3,1-3.1,2.7c-0.1,2.2,2.1,3,3.8,3.6
	c0.8,0.3,1.9,0.7,1.8,1.7c0,1-1,1.7-2,1.6c-1.6-0.1-2.8-1.6-3.6-2.8l-0.5,0.2l0.7,3.1c0.8-0.4,1-0.4,1.2-0.4c0.3,0,0.4,0.1,0.7,0.2
	c0.5,0.2,1.1,0.3,1.7,0.4c1.7,0.1,3.3-1.1,3.3-2.9C79.6,147.7,78,146.8,76.4,146.3z"/>
<path class="st0" d="M89,150.8c-1.5,0.2-3.2-0.9-3.6-4.1c-0.2-1.5-0.1-4.1,1.9-4.4c1.5-0.2,2.8,1,3.5,2.2l0.6-0.3l-1.2-2.8l-0.1,0.1
	c-0.3,0.2-0.6,0.4-0.9,0.4s-0.5,0-0.9-0.1c-0.3-0.1-0.7-0.1-1.2-0.1c-2.7,0.3-4.2,3.2-3.8,5.9c0.3,2.5,2.4,4.4,5,4.1
	c1.9-0.2,3-1.4,3.7-3.1l-0.4-0.2C91,149.6,90.3,150.6,89,150.8z"/>
<path class="st0" d="M104.6,145.9l-2-6c-0.3-0.9-0.1-1.3,0.8-1.6l-0.1-0.4l-4.5,1.5l0.1,0.4c0.9-0.3,1.3-0.1,1.6,0.8l0.9,2.6
	l-3.4,1.1l-0.9-2.6c-0.3-0.9-0.1-1.3,0.8-1.6l-0.1-0.4l-4.5,1.5l0.1,0.4c0.9-0.3,1.3-0.1,1.6,0.8l2,6c0.3,0.9,0.1,1.3-0.8,1.6
	l0.1,0.4l4.5-1.5l-0.1-0.4c-0.9,0.3-1.3,0.1-1.6-0.8l-0.9-2.8l3.4-1.1l0.9,2.8c0.3,0.9,0.1,1.3-0.8,1.6l0.1,0.4l4.5-1.5l-0.1-0.4
	C105.3,146.9,104.9,146.8,104.6,145.9z"/>
<path class="st0" d="M109.8,134.2c-2.6,1.5-3,4.4-1.6,6.8c1.4,2.5,4.1,3.4,6.6,2c2.6-1.5,3-4.6,1.7-6.9
	C115,133.6,112.4,132.7,109.8,134.2z M114.5,142.6c-1.2,0.7-2.7,0.1-4.3-2.8c-1.6-2.8-1.4-4.4,0-5.2c1.2-0.7,2.7-0.2,4.4,2.8
	C115.4,138.9,116.6,141.4,114.5,142.6z"/>
<path class="st0" d="M120.1,127c-2.2,1.9-2,4.9-0.2,7c1.9,2.2,4.6,2.6,6.8,0.7c2.3-2,2-5,0.3-7.1C125.1,125.4,122.3,125,120.1,127z
	 M126.3,134.3c-1.1,0.9-2.6,0.6-4.8-1.9c-2.1-2.4-2.2-4.1-1.1-5.1c1.1-0.9,2.6-0.7,4.8,1.9C126.5,130.5,128.1,132.7,126.3,134.3z"/>
<path class="st0" d="M136.5,119.7c0.3,1.5,0.2,3.3-0.8,4.5c-0.6,0.8-0.9,0.6-1.5,0.1l-4.9-4c-0.7-0.6-0.7-1-0.1-1.8l-0.3-0.3l-3,3.7
	l0.3,0.3c0.6-0.7,1-0.8,1.7-0.2l4.9,4c0.7,0.6,0.7,1,0.1,1.8l0.3,0.3l5-6.2l-1.5-2.3L136.5,119.7z"/>
<path class="st2" d="M113,57.9l-1.2-0.1c-9.3-0.5-14-10.7-14.8-13.4L96.6,43l-1.3,0.6c-4.1,1.8-11.7,2.5-16.9,2.5
	c-5.3,0-12.8-0.7-16.9-2.5L60.2,43l-0.4,1.4C59,47.1,54.3,57.3,45,57.8l-1.2,0.1v1.2c0.3,18.3,5.1,31.2,11,40.3
	c-1.8,0.3-3.6,0.7-5.4,1.2c1.3,2.2,2.5,4.4,3.7,6.5c-0.1,2.5-0.2,5-0.3,7.5c4.5-1.1,9.1-1.9,13.7-2.4c5.1,4,9.6,5.9,11.5,6.7
	l0.4,0.2l0.4-0.2c1.9-0.7,6.4-2.6,11.5-6.7c4.6,0.5,9.2,1.3,13.7,2.4c-0.1-2.5-0.2-5-0.3-7.5c1.2-2.2,2.4-4.4,3.7-6.5
	c-1.8-0.4-3.6-0.8-5.4-1.2c5.9-9.1,10.7-22,11-40.3L113,57.9z M91,110.1c0.1-0.6,0.1-1.3,0.2-1.9c0.1-0.7,0.2-1.4,0.2-2.2
	c0.4,0,0.7,0.1,1.1,0.1c0,0.3-0.1,0.6-0.1,0.9c-0.1,0.7-0.2,1.3-0.2,2c-0.1,0.5-0.1,1.1-0.2,1.6c-0.3,0-0.7-0.1-1-0.1
	C90.9,110.4,91,110.3,91,110.1z M78.4,116.4c-1.6-0.6-4.7-2-8.2-4.5c5.4-0.4,10.9-0.4,16.4,0C83,114.4,80,115.7,78.4,116.4z
	 M66.3,110.6c-0.1,0-0.3,0.1-0.4,0.1c-1.4,0.2-2.5-0.7-2.7-2l0,0c0-0.3,0-0.5,0-0.8c0.1-0.4,0.3-0.8,0.6-1.2
	c0.4-0.4,0.9-0.6,1.5-0.7c0.9-0.1,1.5,0.1,2,0.5c-0.2,0.3-0.4,0.5-0.6,0.8c-0.4-0.3-0.8-0.4-1.3-0.4c-0.4,0-0.7,0.2-0.9,0.5
	c-0.2,0.3-0.4,0.7-0.3,1.1l0,0c0,0.2,0.1,0.3,0.1,0.5c0.2,0.4,0.5,0.6,0.8,0.7c0.2,0.1,0.4,0.1,0.6,0c0.4,0,0.7-0.2,1-0.4
	c0.1-0.1,0.1-0.1,0.2-0.2c0.2,0.2,0.5,0.4,0.7,0.6c-0.1,0.1-0.1,0.2-0.2,0.2C67.2,110.2,66.8,110.4,66.3,110.6z M62.9,99.8
	c0.4,0,0.7-0.1,1.1-0.1c0.2,1.5,0.4,3,0.5,4.5c-0.4,0-0.7,0.1-1.1,0.1C63.3,102.8,63.1,101.3,62.9,99.8z M69.2,103.7
	c-0.6,0.1-1.3,0.1-1.9,0.2c-0.1-1.5-0.3-3-0.4-4.5c0.7-0.1,1.3-0.1,2-0.2c1.6-0.1,2.8,0.8,2.9,2.1l0,0
	C71.7,102.5,70.7,103.6,69.2,103.7z M70.9,110.1c-0.3,0-0.7,0-1,0.1c-0.1-1.5-0.2-3-0.3-4.6c0.4,0,0.7-0.1,1.1-0.1
	C70.7,107.1,70.8,108.6,70.9,110.1z M75.2,100.6c0.8,0,1.6,0,2.4,0c0,0.3,0,0.6,0,0.9c-0.8,0-1.6,0-2.4,0c0,0.3,0,0.6,0,1
	c0.9,0,1.8,0,2.7,0c0,0.3,0,0.6,0,0.9c-1.3,0-2.5,0-3.8,0.1c-0.1-1.5-0.1-3-0.2-4.6c1.3,0,2.6-0.1,3.9-0.1c0,0.3,0,0.6,0,0.9
	c-0.9,0-1.8,0-2.7,0C75.1,100,75.2,100.3,75.2,100.6z M76.7,105.3c0,0.3,0,0.6,0,0.9c-0.9,0-1.7,0-2.6,0.1c0,0.3,0,0.6,0,0.9
	c0.8,0,1.5,0,2.3-0.1c0,0.3,0,0.6,0,0.9c-0.7,0-1.5,0-2.2,0.1c0,0.3,0,0.6,0,1c0.9,0,1.7-0.1,2.6-0.1c0,0.3,0,0.6,0,0.9
	c-1.2,0-2.4,0.1-3.6,0.1c-0.1-1.5-0.1-3-0.2-4.6C74.2,105.4,75.5,105.3,76.7,105.3z M81.9,101.5c-1-0.3-1.7-0.5-1.6-1.4l0,0
	c0-0.8,0.8-1.4,1.8-1.3c0.7,0,1.4,0.3,1.9,0.7c-0.2,0.2-0.4,0.5-0.6,0.7c-0.4-0.3-0.9-0.5-1.3-0.5s-0.7,0.2-0.7,0.4l0,0
	c0,0.3,0.2,0.4,1.1,0.6c1,0.3,1.6,0.6,1.5,1.4l0,0c0,0.9-0.8,1.4-1.9,1.3c-0.7,0-1.5-0.3-2.1-0.8c0.2-0.2,0.4-0.5,0.7-0.7
	c0.4,0.3,0.9,0.6,1.5,0.6c0.4,0,0.7-0.1,0.7-0.4l0,0C82.9,101.9,82.7,101.8,81.9,101.5z M82.1,108.2c0-0.9,0.1-1.9,0.1-2.8
	c0.4,0,0.7,0,1.1,0c-0.1,1.5-0.1,3-0.2,4.6c-0.3,0-0.6,0-0.9,0c-0.7-1-1.5-2-2.2-3c0,1,0,1.9,0,2.9c-0.3,0-0.7,0-1,0
	c0-1.5,0-3,0-4.6c0.3,0,0.7,0,1,0C80.7,106.3,81.4,107.2,82.1,108.2z M85.3,106.4c0-0.3,0-0.6,0.1-0.9c1.3,0.1,2.7,0.2,4,0.3
	c0,0.3-0.1,0.6-0.1,0.9c-0.5,0-1-0.1-1.5-0.1c-0.1,1.2-0.2,2.4-0.3,3.6c-0.3,0-0.7-0.1-1-0.1c0.1-1.2,0.2-2.4,0.3-3.6
	C86.2,106.5,85.7,106.5,85.3,106.4z M93.9,100.7c-0.9-0.1-1.8-0.2-2.7-0.3c0,0.3-0.1,0.6-0.1,0.9c0.8,0.1,1.6,0.2,2.4,0.3
	c0,0.3-0.1,0.6-0.1,0.9c-0.8-0.1-1.6-0.2-2.4-0.3c0,0.3-0.1,0.6-0.1,1c0.9,0.1,1.8,0.2,2.7,0.3c0,0.3-0.1,0.6-0.1,0.9
	c-1.2-0.2-2.5-0.3-3.7-0.4c0.1-1.5,0.3-3,0.4-4.5c1.3,0.1,2.6,0.3,3.9,0.4C94,100.1,94,100.4,93.9,100.7z M57.5,98.9
	C51.7,90.3,46.8,78,46.3,60.2c8.8-1.1,13.8-9.5,15.4-13.8c5.7,2,14.2,2.2,16.5,2.2h0.3l0,0c2.3,0,10.8-0.2,16.5-2.2
	c1.7,4.3,6.6,12.7,15.4,13.8c-0.5,17.7-5.4,30.1-11.2,38.7C85.4,96.6,71.3,96.6,57.5,98.9z M57,102.6c-0.1-0.6-0.2-1.2-0.3-1.9
	c0.1,0,0.3,0,0.4-0.1c0.5-0.1,0.9-0.2,1.4-0.2c0.7-0.1,1.4-0.2,2-0.3c0,0.3,0.1,0.6,0.1,0.9c-0.5,0.1-1,0.2-1.6,0.2
	c-0.4,0.1-0.8,0.1-1.2,0.2c0,0.2,0.1,0.3,0.1,0.5s0.1,0.3,0.1,0.5c0.1,0,0.2,0,0.3,0c0.5-0.1,1-0.2,1.4-0.2c0.2,0,0.5-0.1,0.7-0.1
	c0,0.3,0.1,0.6,0.1,0.9c-0.1,0-0.1,0-0.2,0c-0.5,0.1-1,0.2-1.5,0.2c-0.3,0-0.5,0.1-0.8,0.1c0.1,0.4,0.1,0.8,0.2,1.1
	c0,0.2,0.1,0.4,0.1,0.6c-0.4,0.1-0.7,0.1-1.1,0.2C57.3,104.3,57.2,103.5,57,102.6z M59.9,111.5c-0.7,0.1-1.4,0-2.1-0.4
	c0.2-0.3,0.3-0.5,0.5-0.8c0.5,0.3,1,0.4,1.5,0.3c0.4-0.1,0.6-0.3,0.6-0.5l0,0c0-0.3-0.2-0.4-1-0.4c-1-0.1-1.6-0.2-1.8-1.1l0,0
	c-0.2-0.8,0.4-1.5,1.4-1.7c0.7-0.1,1.3,0,1.9,0.3c-0.1,0.3-0.3,0.6-0.4,0.8c-0.5-0.2-0.9-0.3-1.3-0.2c-0.4,0.1-0.6,0.3-0.5,0.5l0,0
	c0.1,0.3,0.3,0.4,1.1,0.4c1,0.1,1.6,0.3,1.7,1.1l0,0C61.6,110.7,60.9,111.3,59.9,111.5z M97.7,111.6c-0.1-0.4-0.2-0.7-0.2-1.1
	c-0.7-0.1-1.3-0.2-2-0.3c-0.2,0.3-0.4,0.6-0.6,0.9c-0.3-0.1-0.7-0.1-1-0.2c0.9-1.4,1.8-2.8,2.7-4.2c0.3,0.1,0.7,0.1,1,0.2
	c0.4,1.6,0.8,3.3,1.2,4.9C98.5,111.7,98.1,111.6,97.7,111.6z M98.1,105c-0.1,0-0.2,0-0.3,0c-0.3,0-0.5-0.1-0.8-0.1
	c0.1-0.3,0.1-0.7,0.2-1c0.1-0.9,0.3-1.7,0.4-2.6l0,0c-0.5-0.1-1-0.2-1.5-0.2c0-0.3,0.1-0.6,0.1-0.9c0.7,0.1,1.4,0.2,2.1,0.3
	c0.5,0.1,0.9,0.2,1.4,0.2c0.3,0,0.5,0.1,0.8,0.1c-0.1,0.3-0.1,0.6-0.2,0.9c-0.4-0.1-0.8-0.1-1.2-0.2c-0.1,0-0.2,0-0.3-0.1
	c0,0.2-0.1,0.4-0.1,0.6c-0.1,0.8-0.3,1.7-0.4,2.5C98.1,104.7,98.1,104.9,98.1,105z"/>
<path class="st2" d="M73.8,61.1c0.6-0.5,1.1-0.9,1.1-1.8c0-1.2-1.1-1.7-2.2-1.7c-0.8,0-1.8,0.4-1.8,1.3C71,60.3,72.8,60.8,73.8,61.1
	z"/>
<path class="st2" d="M73,63.3l-1.4-0.5c-0.6,0.6-1,1.1-1,2c0,1.5,1,2.2,2.4,2.2c1,0,2.2-0.5,2.2-1.7C75.3,64.1,73.9,63.6,73,63.3z"
	/>
<path class="st2" d="M92,57.5c-1.7,0-2,3.4-2,4.7c0,3.3,0.8,4.8,1.9,4.8c1.8,0,1.9-3.3,1.9-4.5C93.9,58.5,93,57.5,92,57.5z"/>
<path class="st2" d="M82.2,57.5c-1.5,0-1.8,1.6-1.8,2.8c0,1,0.4,2.4,1.6,2.4c0.9,0,1.6-0.8,2.1-1.4C84,60.1,83.9,57.5,82.2,57.5z"/>
<path class="st2" d="M105.4,63.9c-3.6-1.3-6.9-3.7-9.8-7.1c-1.3-1.5-2.4-3.2-3.3-4.7c-5.6,1.2-11.6,1.3-14,1.4l0,0H78
	c-2.4,0-8.4-0.2-14-1.4c-0.9,1.5-2,3.2-3.3,4.7c-2.8,3.4-6.1,5.8-9.8,7.1c0.2,2.4,0.4,4.7,0.7,6.9h52.8
	C105,68.6,105.3,66.3,105.4,63.9z M68.2,67.3H62v-0.4c1.6-0.1,2.1-0.2,2.1-2.2v-4.1c0-1.2-0.6-1.9-2.1-1.9v-0.4
	c1.5-0.2,2.9-0.6,4.2-1.3v8.1c0,1.4,0,1.6,2,1.8V67.3z M72.7,67.5c-1.6,0-4-0.5-4-2.6c0-1.3,1.3-2,2.2-2.6c-0.9-0.5-1.6-1.3-1.6-2.4
	c0-2.1,2-3,3.8-3c1.4,0,3.5,0.5,3.5,2.3c0,1.1-1,1.8-1.9,2.1c1.3,0.6,2.4,1.3,2.4,2.9C77.1,65.7,75.8,67.5,72.7,67.5z M81.4,67.5
	c-1.2,0-2.5-0.6-2.5-1.6c0-0.6,0.5-1,1.1-1c1.5,0,0.8,1.9,1.9,1.9c1,0,2.1-0.7,2.1-4.6c-0.8,0.9-1.9,1.5-3.1,1.5
	c-1.8,0-2.8-1.3-2.8-3c0-2.3,1.9-3.7,4-3.7c2.6,0,4.3,2.3,4.3,4.8C86.5,64.6,84.4,67.5,81.4,67.5z M92,67.5c-2.3,0-4.1-2-4.1-5
	c0-3.3,1.9-5.5,4.2-5.5c1.8,0,4,1.8,4,5.4C96.1,65.4,94.1,67.5,92,67.5z"/>
<polygon class="st2" points="76.4,42.6 80.3,42.6 79.5,30 85.4,30.8 85.4,26.9 79.5,27.8 80.3,21.9 76.4,21.9 77.3,27.8 71.3,26.9 
	71.3,30.8 77.3,30 "/>
<path class="st2" d="M96,109.3c0.4,0.1,0.8,0.1,1.2,0.2c-0.1-0.5-0.3-1-0.4-1.6C96.6,108.4,96.3,108.9,96,109.3z"/>
<path class="st2" d="M68.9,100.1c-0.3,0-0.6,0-0.9,0.1c0.1,0.9,0.2,1.8,0.2,2.7c0.3,0,0.6,0,0.8-0.1c0.9-0.1,1.5-0.7,1.4-1.5l0,0
	C70.4,100.5,69.8,100,68.9,100.1z"/>
<polygon class="st2" points="44.3,19.3 41,16.3 41.8,20.7 "/>
<path class="st2" d="M20.6,40.2c2.7,1.9,4.3,1.9,5.1,0.7c1.4-2-0.7-3.7-2.2-4.8c-2.8-2-4.3-1.8-5.1-0.7C17.5,36.8,18,38.4,20.6,40.2
	z"/>
<polygon class="st2" points="87,6.5 84.9,10.5 87.7,10.9 "/>
<path class="st2" d="M119,28.2c1.9,1.5,3.8-0.5,4.9-1.9c2.1-2.6,2.1-4.2,1-5.1c-1.2-1-2.8-0.5-4.8,1.9C118,25.8,117.9,27.3,119,28.2
	z"/>
<path class="st2" d="M13.9,46.9c-1.2-0.6-2-0.1-2.6,1.2c-0.4,0.8-0.1,1,0.6,1.3l2.6,1.2l0.1-0.2C15.5,48.4,15.1,47.5,13.9,46.9z"/>
<path class="st2" d="M120.5,127.3c-1.1,1-1,2.7,1.1,5.1c2.2,2.5,3.7,2.8,4.8,1.9c1.8-1.6,0.2-3.8-1-5.1
	C123.1,126.6,121.5,126.4,120.5,127.3z"/>
<path class="st2" d="M154.6,68.8c-0.2-1.8-0.5-3.6-0.9-5.4c-0.1-0.7-0.3-1.4-0.5-2.2c-0.3-1.1-0.5-2.2-0.8-3.3
	c-0.1-0.3-0.2-0.5-0.2-0.8c-0.8-2.9-1.9-5.8-3.1-8.6c-0.2-0.6-0.5-1.1-0.7-1.7c-0.3-0.6-0.5-1.1-0.8-1.7c-0.5-1.1-1.1-2.2-1.7-3.3
	c-0.6-1.1-1.2-2.2-1.8-3.2c-0.6-1.1-1.3-2.1-2-3.1c-2.7-4.1-5.9-7.9-9.4-11.4c-0.9-0.9-1.8-1.7-2.7-2.6c-0.9-0.8-1.9-1.6-2.8-2.4
	c-1-0.8-1.9-1.5-2.9-2.3c-0.5-0.4-1-0.7-1.5-1.1c-1-0.7-2-1.4-3.1-2.1c-0.5-0.3-1-0.7-1.6-1c-3.2-1.9-6.5-3.6-9.9-5
	c-1.2-0.5-2.4-1-3.6-1.4S102.2,5.4,101,5c-1.8-0.6-3.7-1.1-5.5-1.5c-0.6-0.1-1.2-0.3-1.9-0.4c-5-1-10.1-1.5-15.3-1.5
	c-6.6,0-13.2,0.8-19.5,2.5c-0.9,0.2-1.8,0.5-2.6,0.7c-1.6,0.5-3.3,1-4.9,1.6c-1,0.4-1.9,0.7-2.9,1.2c-3.4,1.5-6.7,3.1-9.9,5
	c-0.5,0.3-1,0.6-1.6,1c-1,0.7-2.1,1.3-3.1,2.1c-0.5,0.4-1,0.7-1.5,1.1c-1,0.7-2,1.5-2.9,2.3c-1,0.8-1.9,1.6-2.8,2.4
	c-0.9,0.8-1.8,1.7-2.7,2.6c-3.1,3.1-5.9,6.4-8.4,9.9c-0.7,1-1.4,2-2.1,3.1c-2.3,3.6-4.3,7.4-6,11.4c-1,2.4-1.9,4.8-2.6,7.2
	c-0.4,1.2-0.7,2.4-1,3.7c-0.5,1.9-0.9,3.7-1.2,5.6c-0.4,2.5-0.8,5-0.9,7.6c-0.1,1.3-0.2,2.6-0.2,3.9c0,0.6,0,1.3,0,1.9s0,1.3,0,1.9
	c0,1.3,0.1,2.6,0.2,3.9c0.2,3.2,0.7,6.4,1.3,9.5c0.3,1.2,0.5,2.5,0.9,3.7c0.3,1.2,0.7,2.5,1,3.7c0.8,2.4,1.6,4.8,2.6,7.2
	c1.7,4,3.7,7.8,6,11.4c0.5,0.8,1.1,1.6,1.6,2.4c0.5,0.7,1,1.4,1.5,2.1c2.2,3,4.6,5.8,7.3,8.4c5.3,5.3,11.2,9.7,17.7,13.2
	c2.2,1.2,4.4,2.2,6.7,3.2c2.5,1.1,5.1,2,7.8,2.8c0.9,0.3,1.8,0.5,2.6,0.7c0.3,0.1,0.6,0.2,0.9,0.2c1,0.2,1.9,0.5,2.9,0.7
	c1.5,0.3,2.9,0.6,4.4,0.8c3.7,0.5,7.5,0.8,11.3,0.8c5.2,0,10.3-0.5,15.3-1.5c2.5-0.5,5-1.1,7.4-1.9s4.8-1.6,7.2-2.6
	c0.6-0.2,1.1-0.5,1.7-0.7c1.1-0.5,2.2-1,3.3-1.6c7.1-3.6,13.6-8.4,19.4-14.1c0.9-0.9,1.7-1.8,2.6-2.7c0.8-0.9,1.6-1.9,2.4-2.8
	c1.6-1.9,3-3.9,4.4-5.9c0.7-1,1.3-2.1,2-3.1c0.6-1.1,1.2-2.1,1.8-3.2c0.6-1.1,1.1-2.2,1.7-3.3c0.3-0.6,0.5-1.1,0.8-1.7
	s0.5-1.1,0.7-1.7c1.3-3,2.3-6,3.2-9c0.3-1.2,0.7-2.5,0.9-3.7c0.1-0.6,0.3-1.2,0.4-1.9c0.4-1.9,0.7-3.8,0.9-5.7
	c0.4-3.2,0.6-6.4,0.6-9.6C155.2,75.2,155,72,154.6,68.8z M139.4,37.2l0.4-0.2l2.5,4l-0.4,0.2c-0.5-0.8-0.9-0.9-1.7-0.4l-5.4,3.4
	c-0.8,0.5-0.8,0.9-0.3,1.7l-0.4,0.2l-2.5-4l0.4-0.2c0.5,0.8,0.9,0.9,1.7,0.4l5.4-3.4C139.8,38.4,139.9,38,139.4,37.2z M131.8,29.6
	c0.7-0.6,0.7-1,0.1-1.8l0.3-0.3l3.1,3.6l-0.3,0.3c-0.6-0.7-1.1-0.8-1.8-0.2l-4.8,4.1c-0.6,0.5-0.9,0.7-0.2,1.5
	c1.1,1.2,2.8,1.6,4.3,1.6l0.1,0.3l-2.5,1.1l-5.2-6.1l0.3-0.3c0.6,0.7,1.1,0.8,1.8,0.2L131.8,29.6z M118.2,21.8c1.8-2.2,4.7-2.9,7-1
	s2.5,4.6,0.6,6.9c-1.7,2.1-4.7,2.9-7,1C116.5,26.9,116.4,24.1,118.2,21.8z M105.3,18.1l2.9-5.6c0.4-0.8,0.3-1.2-0.6-1.7l0.2-0.4
	l4.2,2.2l-0.2,0.4c-0.8-0.4-1.3-0.3-1.7,0.5l-1.3,2.4l3.2,1.6l1.3-2.4c0.4-0.8,0.3-1.2-0.6-1.7l0.2-0.4l4.2,2.2l-0.2,0.4
	c-0.8-0.4-1.3-0.3-1.7,0.5l-2.9,5.6c-0.4,0.8-0.3,1.2,0.6,1.7l-0.2,0.4l-4.2-2.2l0.2-0.4c0.8,0.4,1.3,0.3,1.7-0.5l1.4-2.7l-3.2-1.6
	l-1.4,2.7c-0.4,0.8-0.3,1.2,0.6,1.7l-0.2,0.4l-4.2-2.2l0.2-0.4C104.5,19,104.9,18.9,105.3,18.1z M96.3,6.6l7.6,2.3l-0.1,2.7h-0.5
	c-0.3-1.1-1.1-2.7-2.3-3.1l-2.2,7.2c-0.3,0.9,0,1.3,0.9,1.5l-0.1,0.4l-4.5-1.4l0.1-0.4c0.9,0.3,1.3,0.1,1.6-0.8L99,7.8
	c-1.3-0.2-2.6,0.4-3.6,1.3L95,8.8L96.3,6.6z M81.3,13.6c1.3-0.2,1.6-0.8,2.2-1.8l3.4-6.5l2-0.4l1.4,8.1c0.2,1,0.2,1.7,1.4,1.9
	l-0.1,0.4L87,14.7l0.1-0.4c0.8,0.1,1.1-0.1,1.1-0.5c0-0.2,0-0.5-0.1-0.8l-0.3-1.6L84.5,11l-0.4,0.8c-0.2,0.3-0.4,0.7-0.4,1.1
	c-0.1,0.7,0.5,1,1.1,1.1l-0.1,0.4L81.2,14L81.3,13.6z M75,4.4c0.5,0,0.9,0.1,1.2,0.1c0.3,0.1,0.6,0.2,0.9,0.2s0.7-0.2,1-0.4l0.1-0.1
	l0.9,2.9l-0.6,0.2c-0.6-1.2-1.8-2.5-3.3-2.5c-2,0.1-2.3,2.7-2.3,4.2c0.2,3.2,1.8,4.4,3.3,4.4c1.3-0.1,2.1-1,2.7-2l0.4,0.2
	c-0.8,1.6-2,2.8-3.9,2.9c-2.6,0.1-4.6-2-4.7-4.5C70.5,7.2,72.2,4.5,75,4.4z M51.7,9.5l6.7,4.7l-1.5-4.1c-0.4-1.1-0.7-1.6-2-1.3
	l-0.1-0.4l3.3-1.2l0.1,0.4c-1.1,0.6-1.1,1.1-0.7,2.2l2.5,6.9l-1.1,0.4l-7.5-5.3l1.7,4.8c0.5,1.4,0.7,1.6,2.1,1.4l0.1,0.4l-3.5,1.3
	l-0.1-0.4c1.1-0.6,1.2-1.1,0.8-2.2l-2.1-5.7c-0.5-0.3-1.1-0.4-1.7-0.3l-0.1-0.4L51.7,9.5z M41.6,13.9l6.1,5.6
	c0.7,0.7,1.2,1.2,2.2,0.6l0.2,0.4l-4,2.4l-0.2-0.4c0.7-0.5,0.8-0.7,0.6-1c-0.1-0.2-0.3-0.4-0.5-0.6l-1.2-1.1l-2.9,1.7l0.2,0.9
	c0.1,0.4,0.1,0.8,0.3,1.1c0.3,0.6,1,0.5,1.5,0.2l0.2,0.4l-3,1.8l-0.2-0.4c0.9-0.9,0.8-1.6,0.6-2.8l-1.3-7.2L41.6,13.9z M27.1,25
	l5.6,3.1l-2.4-6l2.8-2.5l0.3,0.3c-0.7,0.7-0.8,1-0.1,1.8l4.3,4.7c0.6,0.7,1.1,0.7,1.8,0l0.3,0.3l-3.5,3.2l-0.3-0.3
	c0.7-0.6,0.8-1.1,0.1-1.8l-4.6-5.1l0,0l3.5,8.4l-0.4,0.3l-7.8-4.2l0,0l3.6,4c1.4,1.6,1.7,1.7,2.6,1l0.3,0.3l-2.5,2.2l-0.3-0.3
	c0.7-0.9,0.8-1.2-0.7-2.8l-3.4-3.8c-0.7-0.7-1.1-0.6-1.8,0l-0.3-0.3L27.1,25z M17.9,35.3c1.7-2.4,4.5-2.7,6.9-1
	c2.2,1.6,3.1,4.5,1.4,6.9c-1.7,2.3-4.4,2.6-6.8,1C17,40.5,16.2,37.7,17.9,35.3z M11.1,51.4c-0.8-0.4-1.2-0.2-1.6,0.7l-0.4-0.2
	l2.4-5.2c0.8-1.8,2.3-2.4,3.5-1.9c1.3,0.6,1.4,2.1,1.1,3.3c0.4-0.3,0.9-0.3,1.4-0.3l1.6-0.1c1-0.1,2-0.1,2.5-1.1l0.4,0.2l-1.4,3
	c-0.4,0.1-0.8,0-1.2,0.1h-1.8c-1.9,0-2.2,0.4-2.5,0.9l2.7,1.2c0.8,0.4,1.2,0.2,1.6-0.7l0.4,0.2l-2,4.3l-0.4-0.2
	c0.4-0.9,0.3-1.3-0.6-1.7L11.1,51.4z M27.8,132.1l-0.3,0.3l-3.2-3.5l0.3-0.3c0.6,0.7,1.1,0.7,1.8,0.1l2.2-2l-2.4-2.6l-2.2,2
	c-0.7,0.6-0.7,1.1,0,1.8l-0.3,0.3l-3.2-3.5l0.3-0.3c0.6,0.7,1.1,0.7,1.8,0.1l4.7-4.3c0.7-0.6,0.7-1.1,0-1.8l0.3-0.3l3.2,3.5
	l-0.3,0.3c-0.6-0.7-1.1-0.7-1.8-0.1l-2,1.9l2.4,2.6l2-1.9c0.7-0.6,0.7-1.1,0-1.8l0.3-0.3l3.2,3.5l-0.3,0.3c-0.6-0.7-1.1-0.7-1.8-0.1
	l-4.7,4.3C27.2,130.9,27.2,131.4,27.8,132.1z M38.4,130.9l-3.9,5c-0.6,0.7-0.5,1.2,0.3,1.7l-0.3,0.3l-3.7-2.9l0.3-0.3
	c0.7,0.6,1.2,0.6,1.8-0.2l3.9-5c0.6-0.7,0.5-1.2-0.3-1.7l0.3-0.3l3.7,2.9l-0.3,0.3C39.4,130.1,39,130.1,38.4,130.9z M49,138.6
	l-0.5-0.1c-0.3-2-0.6-3.1-1.6-3.7c-1.1-0.6-2.8-0.2-4.5,2.7c-1.6,2.9-1.4,4.5-0.1,5.2s2-0.1,2.6-1.2c0.5-0.9,0.3-1.2-0.5-1.7
	l0.3-0.4l3.9,2.2l-0.3,0.4c-1-0.4-1.3-0.2-1.7,0.7l-1,1.7c-0.8-0.4-0.9-0.5-1.7-0.6c-0.7-0.2-1.3-0.3-1.9-0.7
	c-2.5-1.4-3.1-3.9-1.7-6.4c1.3-2.3,4.3-3.8,6.8-2.4c0.3,0.2,0.6,0.4,0.8,0.7c0.2,0.2,0.4,0.5,0.6,0.6c0.3,0.2,0.8,0.2,1.2,0.2
	L49,138.6z M63,141.5c-0.9-0.3-1.3-0.1-1.6,0.8l-2,6c-0.3,0.9-0.1,1.3,0.8,1.6l-0.1,0.4l-4.5-1.5l0.1-0.4c0.9,0.3,1.3,0.1,1.6-0.8
	l0.9-2.8l-3.4-1.1l-0.9,2.8c-0.3,0.9-0.1,1.3,0.8,1.6l-0.1,0.4l-4.5-1.5l0.1-0.4c0.9,0.3,1.3,0.1,1.6-0.8l2-6
	c0.3-0.9,0.1-1.3-0.8-1.6l0.1-0.4l4.5,1.5l-0.1,0.4c-0.9-0.3-1.3-0.1-1.6,0.8l-0.9,2.6l3.4,1.1l0.9-2.6c0.3-0.9,0.1-1.3-0.8-1.6
	l0.1-0.4l4.5,1.5L63,141.5z M76.2,152.5c-0.6,0-1.1-0.2-1.7-0.4c-0.2-0.1-0.4-0.2-0.7-0.2c-0.2,0-0.3,0-1.2,0.4l-0.7-3.1l0.5-0.2
	c0.7,1.3,2,2.8,3.6,2.8c0.9,0,1.9-0.6,2-1.6c0-1.1-1-1.4-1.8-1.7c-1.7-0.6-3.9-1.4-3.8-3.6c0.1-1.7,1.4-2.7,3.1-2.7
	c0.5,0,0.9,0.1,1.4,0.3c0.2,0.1,0.4,0.1,0.5,0.2c0.3,0,0.8-0.2,1-0.5l0.8,2.9l-0.5,0.2c-0.6-1.1-1.9-2.5-3.2-2.5
	c-0.9,0-1.7,0.4-1.7,1.4c0,1.1,1.1,1.4,1.9,1.7l0.8,0.3c1.6,0.6,3.2,1.4,3.1,3.3C79.4,151.4,77.9,152.6,76.2,152.5z M88.2,151.9
	c-2.6,0.3-4.7-1.6-5-4.1c-0.3-2.7,1.1-5.6,3.8-5.9c0.5-0.1,0.9,0,1.2,0.1c0.3,0.1,0.6,0.1,0.9,0.1s0.6-0.2,0.9-0.4l0.1-0.1l1.2,2.8
	l-0.6,0.3c-0.7-1.2-2-2.4-3.5-2.2c-2,0.3-2.1,2.8-1.9,4.4c0.4,3.2,2.1,4.3,3.6,4.1c1.3-0.2,2-1.2,2.6-2.2l0.4,0.2
	C91.2,150.5,90.1,151.7,88.2,151.9z M101.8,148.5l-0.1-0.4c0.9-0.3,1.1-0.7,0.8-1.6l-0.9-2.8l-3.4,1.1l0.9,2.8
	c0.3,0.9,0.7,1.1,1.6,0.8l0.1,0.4l-4.5,1.5l-0.1-0.4c0.9-0.3,1.1-0.7,0.8-1.6l-2-6c-0.3-0.9-0.7-1.1-1.6-0.8l-0.1-0.4l4.5-1.5
	l0.1,0.4c-0.9,0.3-1.1,0.7-0.8,1.6l0.9,2.6l3.4-1.1l-0.9-2.6c-0.3-0.9-0.7-1.1-1.6-0.8l-0.1-0.4l4.5-1.5l0.1,0.4
	c-0.9,0.3-1.1,0.7-0.8,1.6l2,6c0.3,0.9,0.7,1.1,1.6,0.8l0.1,0.4L101.8,148.5z M114.8,143c-2.5,1.4-5.1,0.5-6.6-2
	c-1.4-2.4-1-5.4,1.6-6.8c2.6-1.5,5.2-0.6,6.6,2C117.8,138.5,117.4,141.5,114.8,143z M126.7,134.7c-2.2,1.9-4.9,1.5-6.8-0.7
	c-1.8-2.1-2-5.1,0.2-7s5-1.6,6.9,0.6C128.7,129.6,129,132.7,126.7,134.7z M133.3,128l-0.3-0.3c0.6-0.7,0.6-1.2-0.1-1.8l-4.9-4
	c-0.7-0.6-1.2-0.5-1.7,0.2l-0.3-0.3l3-3.7l0.3,0.3c-0.6,0.7-0.6,1.2,0.1,1.8l4.9,4c0.6,0.5,0.9,0.7,1.5-0.1c1-1.3,1.1-3,0.8-4.5
	l0.3-0.2l1.5,2.3L133.3,128z M78.4,139.9c-33.9,0-61.5-27.6-61.5-61.5s27.6-61.5,61.5-61.5s61.5,27.6,61.5,61.5
	S112.3,139.9,78.4,139.9z M145.5,53.9l-0.4-0.5c0.9-1,1.7-2.6,1.1-4c-0.8-1.8-3.3-1.2-4.7-0.6c-2.9,1.3-3.5,3.3-2.9,4.6
	c0.5,1.2,1.7,1.6,2.9,1.8l-0.1,0.4c-1.8-0.2-3.3-0.9-4.1-2.6c-1.1-2.4,0.2-5,2.5-6c2.5-1.1,5.7-0.5,6.8,2c0.2,0.4,0.2,0.8,0.3,1.2
	c0,0.3,0.1,0.6,0.2,0.9s0.4,0.5,0.7,0.8l0.1,0.1L145.5,53.9z"/>
<path class="st2" d="M110.1,134.6c-1.3,0.7-1.5,2.4,0,5.2c1.6,2.9,3.1,3.5,4.3,2.8c2.1-1.2,0.9-3.7,0-5.2
	C112.8,134.4,111.4,133.9,110.1,134.6z"/>
<path class="st2" d="M78.4,72.4L56.2,87c1.2,2.9,2.6,5.5,4,7.7l18.1-12l18.3,12.1c1.4-2.3,2.8-4.9,4-7.8L78.4,72.4z"/>
<path class="st2" d="M119.7,41.4c0,0.4,0.2,1.1,0.4,2c0.2,0.9,0.5,1.9,0.7,3c0.3,1.1,0.5,2.3,0.8,3.4c0.2,0.8,0.3,1.5,0.5,2.2
	c-0.6-0.8-1.2-1.6-1.8-2.3c-1.1-1.3-2.1-2.5-3.2-3.6l0,0c0.6-1,0.6-2.8-0.5-5.2c-1.1-2.3-3.5-5.1-7.4-7.2c0.1,0.4,0.5,1,0.9,1.8
	s0.9,1.7,1.5,2.7c1,1.7,1.9,3.7,2.7,5.3c-0.3-0.3-0.7-0.6-1-0.8c-0.7-0.6-1.3-1-1.8-1.4c-0.6-0.4-1-0.7-1.4-1
	c-0.8-0.5-1.2-0.8-1.2-0.8v0.1l0,0c0.3-0.6,0.1-1.3-0.5-2c-0.3-0.4-0.7-0.8-1.3-1.2c-0.5-0.4-1.1-0.8-1.8-1.1
	c-1.4-0.7-3.1-1.1-4.9-1.3c-1.8-0.2-3.7,0-5.4,0.5l0,0c1.5,1,3,1.9,4.4,2.7c1.4,0.8,2.8,1.5,4.1,2.1c0.6,0.3,1.2,0.5,1.8,0.7
	c0.6,0.2,1.1,0.3,1.5,0.4c0.8,0.1,1.4,0,1.8-0.4c0.1,0.1,0.2,0.1,0.3,0.2c1.4,0.9,3.1,2.1,4.9,3.6c-1.6-0.5-3.5-0.9-5.2-0.9
	c-0.5,0-1,0-1.4,0c-0.5,0-0.9,0-1.3,0.1c-0.8,0.1-1.3,0.2-1.7,0.3c2.9,1.7,5.5,2.8,7.7,3.4c2.1,0.6,3.8,0.6,4.9,0
	c1.1,1.1,2.1,2.3,3.2,3.6c0.6,0.8,1.2,1.5,1.8,2.4c-0.6-0.4-1.3-0.8-1.9-1.1c-1-0.5-2-0.9-3-1.2c-1-0.3-1.9-0.6-2.7-0.7
	c-0.8-0.1-1.4-0.2-1.7-0.2c2.5,2.5,4.7,4.3,6.7,5.4c0.5,0.3,1,0.5,1.5,0.7s0.9,0.4,1.3,0.5c0.8,0.2,1.5,0.2,2,0.1
	c0.5,0.8,0.9,1.7,1.3,2.6c0.6,1.3,1.2,2.7,1.7,4.1c-0.4-0.5-0.9-0.9-1.4-1.4c-0.9-0.7-1.8-1.4-2.7-2c-1.8-1.1-3.4-1.8-4.2-2
	c1.9,3.1,3.6,5.4,5.3,7c0.4,0.4,0.8,0.8,1.2,1.1c0.4,0.3,0.8,0.6,1.2,0.8c0.7,0.4,1.3,0.6,1.8,0.6c0.2,0.7,0.4,1.5,0.5,2.2
	c0.3,1.6,0.6,3.2,0.8,4.8c0,0,0-0.1-0.1-0.1c-0.3-0.5-0.6-1-0.9-1.4c-0.3-0.5-0.7-0.9-1-1.4c-0.3-0.4-0.7-0.9-1.1-1.3
	s-0.7-0.8-1.1-1.1c-0.4-0.3-0.7-0.6-1-0.9c-0.6-0.5-1.2-0.9-1.5-1c1,3.5,2.2,6.2,3.4,8.2c0.3,0.5,0.6,1,0.9,1.4s0.6,0.8,0.9,1.1
	c0.6,0.5,1.1,0.9,1.6,1.1c0,0.8,0,1.6-0.1,2.4c-0.1,1.6-0.2,3.2-0.4,4.8c0-0.1,0-0.2-0.1-0.2c-0.2-0.5-0.3-1.1-0.5-1.6
	s-0.4-1.1-0.7-1.6c-0.2-0.5-0.5-1-0.7-1.5c-0.5-1-1.1-1.8-1.5-2.5c-0.5-0.7-0.9-1.1-1.2-1.4c0,0.9,0.1,1.8,0.1,2.6
	c0,0.4,0.1,0.8,0.1,1.2c0.1,0.4,0.1,0.8,0.1,1.2c0.2,1.5,0.5,2.9,0.9,4c0.3,1.2,0.8,2.1,1.3,2.9c0.4,0.7,0.9,1.2,1.4,1.5
	c-0.2,0.9-0.5,1.8-0.7,2.7c-0.4,1.4-0.9,2.7-1.4,4c0-0.1,0-0.2,0-0.2c0-0.3,0-0.6,0-0.9s-0.1-0.6-0.1-0.9c-0.1-0.6-0.2-1.2-0.3-1.8
	c-0.1-0.6-0.3-1.1-0.4-1.7c-0.3-1.1-0.6-2.1-1-2.8c-0.3-0.8-0.6-1.4-0.9-1.7c-0.8,3.7-1,6.8-0.8,9.3c0.2,2.3,0.8,4.1,1.6,4.9
	c-0.5,1-1,1.9-1.6,2.9s-1.2,2-1.9,3l0,0c0.1-0.6,0.2-1.2,0.2-1.8c0-0.3,0.1-0.6,0.1-0.9s0-0.6,0-0.9c0-0.6,0-1.2,0-1.8
	c-0.1-1.1-0.2-2.2-0.3-3c-0.2-0.9-0.3-1.5-0.5-1.9c-1.6,3.5-2.6,6.5-3,9c-0.1,0.6-0.1,1.2-0.2,1.8c0,0.5,0,1.1,0,1.5
	c0.1,0.8,0.3,1.4,0.5,1.9c-0.7,0.9-1.5,1.7-2.3,2.5c-0.7,0.8-1.5,1.5-2.3,2.2c0.2-0.5,0.4-1,0.6-1.5c0.2-0.6,0.4-1.2,0.5-1.8
	c0.2-0.6,0.3-1.2,0.4-1.7c0.4-2.3,0.5-4.2,0.3-5c-2.4,3.1-4.1,5.8-5,8.2c-0.5,1.2-0.8,2.3-0.9,3.2c-0.1,0.7-0.1,1.4,0.1,1.9
	c-0.7,0.6-1.5,1.1-2.2,1.6c-1,0.7-2,1.3-3,1.8c0.3-0.4,0.5-0.8,0.8-1.2c0.7-1.1,1.3-2.2,1.7-3.3c0.5-1.1,0.8-2.1,1.1-3
	c0.3-0.8,0.4-1.5,0.4-2c-0.2,0.2-0.4,0.3-0.6,0.5s-0.4,0.3-0.6,0.5c-0.4,0.3-0.7,0.6-1,0.9c-0.7,0.6-1.3,1.2-1.9,1.8
	c-0.6,0.6-1.1,1.2-1.6,1.7s-0.9,1.1-1.3,1.6c-0.8,1-1.3,2.1-1.6,3c-0.2,0.7-0.4,1.3-0.4,1.8c-0.3,0.1-0.6,0.3-0.9,0.4
	c-1.7,0.7-3.3,1.3-4.9,1.8c0.3-0.3,0.7-0.6,1-0.9c0.4-0.5,0.9-0.9,1.3-1.4s0.8-1,1.2-1.4c0.7-0.9,1.3-1.9,1.7-2.7
	c0.4-0.8,0.7-1.5,0.8-1.9c-3.6,1.8-6.4,3.6-8.3,5.4c-1.7,1.5-2.8,3-3.1,4.3c-1.5,0.3-2.8,0.5-4,0.6c-1.8,0.2-3.2,0.3-4.1,0.3
	s-1.4,0-1.5,0s-0.6,0-1.5,0s-2.4-0.1-4.1-0.3c-1.2-0.1-2.5-0.3-4-0.6c-0.3-1.3-1.4-2.8-3.1-4.3c-2-1.8-4.7-3.5-8.3-5.4
	c0.1,0.4,0.4,1.1,0.8,1.9s1,1.7,1.7,2.7c0.4,0.5,0.8,1,1.2,1.4c0.4,0.5,0.9,0.9,1.3,1.4c0.3,0.3,0.7,0.6,1,0.9
	c-1.6-0.5-3.2-1.1-4.9-1.8c-0.3-0.1-0.6-0.2-0.9-0.4c0-0.5-0.1-1.1-0.4-1.8c-0.3-0.9-0.9-1.9-1.6-3c-0.4-0.5-0.8-1.1-1.3-1.6
	c-0.5-0.6-1-1.2-1.6-1.7c-0.6-0.6-1.2-1.2-1.9-1.8c-0.3-0.3-0.7-0.6-1-0.9c-0.2-0.2-0.4-0.3-0.6-0.5s-0.4-0.3-0.6-0.5
	c0,0.4,0.1,1.1,0.4,2c0.2,0.9,0.6,1.9,1.1,3s1.1,2.2,1.7,3.3c0.2,0.4,0.5,0.8,0.8,1.2c-1-0.6-2-1.2-3-1.8c-0.7-0.5-1.5-1-2.2-1.6
	c0.1-0.5,0.2-1.2,0.1-1.9c-0.1-0.9-0.4-2-0.9-3.2c-1-2.4-2.6-5.1-5-8.2c-0.2,0.8-0.1,2.7,0.3,5c0.1,0.6,0.2,1.2,0.4,1.7
	c0.2,0.6,0.3,1.2,0.5,1.8c0.2,0.5,0.4,1,0.6,1.5c-0.8-0.7-1.5-1.4-2.3-2.2c-0.8-0.8-1.5-1.6-2.3-2.5c0.3-0.5,0.5-1.1,0.5-1.9
	c0.1-0.5,0.1-1,0-1.5c0-0.5-0.1-1.1-0.2-1.8c-0.4-2.5-1.4-5.5-3-9c-0.2,0.4-0.3,1-0.5,1.9c-0.1,0.8-0.3,1.9-0.3,3c0,0.6,0,1.2,0,1.8
	c0,0.3,0,0.6,0,0.9s0.1,0.6,0.1,0.9c0.1,0.6,0.1,1.2,0.2,1.8l0,0c-0.7-1-1.3-1.9-1.9-3c-0.6-0.9-1.1-1.9-1.6-2.9
	c0.9-0.9,1.4-2.6,1.6-4.9c0.2-2.5-0.1-5.5-0.8-9.3c-0.2,0.3-0.6,0.9-0.9,1.7c-0.3,0.8-0.7,1.8-1,2.8c-0.1,0.5-0.3,1.1-0.4,1.7
	s-0.2,1.2-0.3,1.8c0,0.3-0.1,0.6-0.1,0.9s0,0.6,0,0.9c0,0.1,0,0.2,0,0.2c-0.5-1.3-1-2.6-1.4-4c-0.3-0.9-0.5-1.8-0.7-2.7
	c0.5-0.3,1-0.8,1.4-1.5c0.5-0.8,1-1.8,1.3-2.9c0.4-1.2,0.6-2.5,0.9-4c0.1-0.4,0.1-0.8,0.1-1.2c0.1-0.4,0.1-0.8,0.1-1.2
	c0-0.9,0.1-1.7,0.1-2.6c-0.3,0.2-0.7,0.7-1.2,1.4c-0.5,0.7-1,1.5-1.5,2.5c-0.3,0.5-0.5,1-0.7,1.5s-0.5,1.1-0.7,1.6s-0.4,1.1-0.5,1.6
	c0,0.1,0,0.2-0.1,0.2c-0.2-1.6-0.4-3.2-0.4-4.8c0-0.8-0.1-1.6-0.1-2.4c0.5-0.2,1.1-0.5,1.6-1.1c0.3-0.3,0.6-0.7,0.9-1.1
	s0.6-0.9,0.9-1.4c1.2-2,2.4-4.7,3.4-8.2c-0.3,0.2-0.9,0.5-1.5,1c-0.3,0.3-0.6,0.6-1,0.9s-0.7,0.7-1.1,1.1s-0.7,0.8-1.1,1.3
	c-0.3,0.4-0.7,0.9-1,1.4s-0.6,0.9-0.9,1.4c0,0,0,0.1-0.1,0.1c0.2-1.6,0.4-3.2,0.8-4.8c0.2-0.8,0.3-1.5,0.5-2.2
	c0.5,0,1.2-0.2,1.8-0.6c0.4-0.2,0.8-0.5,1.2-0.8c0.4-0.3,0.8-0.7,1.2-1.1c1.7-1.6,3.4-3.9,5.3-7c-0.7,0.1-2.4,0.8-4.2,2
	c-0.9,0.6-1.8,1.3-2.7,2c-0.5,0.4-1,0.9-1.4,1.4c0.5-1.4,1.1-2.8,1.7-4.1c0.4-0.9,0.9-1.8,1.3-2.6c0.6,0.1,1.2,0.1,2-0.1
	c0.4-0.1,0.9-0.3,1.3-0.5c0.5-0.2,1-0.4,1.5-0.7c2-1.1,4.2-2.9,6.7-5.4c-0.4,0-1,0-1.7,0.2c-0.8,0.2-1.7,0.4-2.7,0.7
	c-1,0.3-2,0.8-3,1.2c-0.7,0.4-1.3,0.7-1.9,1.1c0.6-0.8,1.2-1.6,1.8-2.4c1-1.3,2.1-2.5,3.2-3.6c1,0.6,2.8,0.5,4.9,0
	c2.2-0.6,4.7-1.7,7.7-3.4c-0.3-0.1-0.9-0.2-1.7-0.3c-0.4,0-0.8-0.1-1.3-0.1s-0.9,0-1.4,0c-1.7,0.1-3.6,0.4-5.2,0.9
	c1.8-1.5,3.4-2.7,4.9-3.6c0.1-0.1,0.2-0.1,0.3-0.2c0.4,0.4,1,0.5,1.8,0.4c0.5-0.1,1-0.2,1.5-0.4c0.6-0.2,1.2-0.4,1.8-0.7
	c1.3-0.6,2.6-1.3,4.1-2.1c1.4-0.8,2.9-1.7,4.4-2.7l0,0c-1.7-0.5-3.6-0.7-5.4-0.5s-3.5,0.7-4.9,1.3c-0.7,0.3-1.3,0.7-1.8,1.1
	s-0.9,0.8-1.3,1.2c-0.6,0.7-0.8,1.4-0.5,2l0,0v-0.1c0,0-0.4,0.3-1.2,0.8c-0.4,0.3-0.9,0.6-1.4,1s-1.2,0.9-1.8,1.4
	c-0.3,0.3-0.6,0.5-1,0.8c0.8-1.6,1.8-3.5,2.7-5.3c0.5-1,1.1-1.9,1.5-2.7c0.4-0.8,0.8-1.4,0.9-1.8c-3.9,2.1-6.3,4.9-7.4,7.2
	c-1.1,2.3-1.1,4.2-0.5,5.2l0,0c-1.1,1.1-2.2,2.3-3.2,3.6c-0.6,0.7-1.2,1.5-1.8,2.3c0.2-0.7,0.3-1.4,0.5-2.2c0.3-1.1,0.5-2.3,0.8-3.4
	c0.2-1.1,0.5-2.1,0.7-3s0.4-1.6,0.4-2c-3.3,3.1-4.8,6.4-5.4,9c-0.1,0.6-0.2,1.2-0.2,1.8c0,0.6,0,1.1,0.1,1.5
	c0.2,0.8,0.5,1.4,0.9,1.9c-0.5,0.8-1,1.7-1.4,2.6c-0.7,1.4-1.3,2.9-1.9,4.4c0-0.7,0-1.5-0.1-2.3c0-1.2-0.1-2.4-0.1-3.5
	c-0.1-2.3,0-4.4-0.2-5.2c-2.5,3.9-3.2,7.6-3,10.2c0,0.7,0.1,1.3,0.2,1.8s0.3,1,0.5,1.4c0.4,0.8,0.8,1.3,1.3,1.6
	c-0.2,0.7-0.4,1.5-0.5,2.2c-0.4,1.7-0.7,3.4-0.9,5.2c0-0.1-0.1-0.3-0.1-0.4c-0.2-0.5-0.3-1.1-0.5-1.7s-0.3-1.2-0.5-1.7
	c-0.2-0.6-0.3-1.2-0.5-1.7c-0.2-0.6-0.3-1.1-0.5-1.7c-0.1-0.5-0.3-1-0.4-1.5c-0.2-0.9-0.4-1.6-0.6-2c-0.7,2.2-1,4.3-1.1,6.2
	c0,0.9,0,1.8,0.2,2.6c0.1,0.8,0.3,1.5,0.5,2.2s0.5,1.2,0.7,1.7c0.3,0.5,0.6,0.9,0.9,1.3c0.5,0.6,1.1,1,1.6,1.2c0,0.8,0,1.6,0,2.4
	c0.1,1.6,0.2,3.2,0.4,4.7c0,0,0-0.1-0.1-0.1c-0.3-0.5-0.6-1-0.9-1.5c-0.6-1.1-1.3-2.1-1.9-3.2c-0.6-1-1.2-2-1.6-2.8
	c-0.5-0.8-0.9-1.5-1.1-1.8c-0.2,4.8,1,8.4,2.4,10.8c0.8,1.2,1.5,2,2.3,2.6c0.6,0.5,1.3,0.7,1.8,0.8c0.2,0.9,0.4,1.9,0.7,2.8
	c0.4,1.3,0.8,2.6,1.3,3.8c-0.2-0.2-0.4-0.4-0.6-0.6s-0.4-0.4-0.6-0.7c-0.4-0.4-0.9-0.9-1.3-1.3c-0.4-0.5-0.9-0.9-1.3-1.4
	c-0.9-0.9-1.6-1.7-2.3-2.4c-0.7-0.7-1.2-1.2-1.5-1.5c0.8,4.8,2.9,8.2,4.9,10.1c1.8,1.8,3.5,2.5,4.8,2.4c0.5,1,1,2,1.6,3
	s1.2,2,1.8,2.9c-1.5-1-3.1-2-4.6-3c-1-0.7-2-1.4-2.8-1.9s-1.5-1-1.9-1.1c1.9,4.5,4.7,7.4,7.2,9c0.6,0.4,1.2,0.7,1.7,0.9
	c0.6,0.2,1.1,0.4,1.6,0.4c0.8,0.1,1.4,0.1,2-0.1c0.7,0.9,1.5,1.8,2.3,2.6c0.8,0.8,1.6,1.6,2.4,2.3c-0.5-0.2-1.1-0.4-1.7-0.6
	s-1.2-0.4-1.8-0.7c-0.6-0.2-1.2-0.4-1.8-0.7c-2.4-0.9-4.5-1.8-5.4-1.9c1.5,2,3.1,3.6,4.7,4.8c0.8,0.6,1.6,1.1,2.3,1.5
	c0.8,0.4,1.5,0.7,2.2,1c1.4,0.5,2.6,0.7,3.6,0.6c0.8-0.1,1.5-0.2,1.9-0.5c0.7,0.6,1.5,1.1,2.2,1.6c1.1,0.8,2.2,1.4,3.3,2.1
	c-0.6-0.1-1.2-0.1-1.8-0.2c-1.3-0.2-2.7-0.3-3.9-0.5c-1.3-0.2-2.5-0.4-3.5-0.5s-1.8-0.2-2.3-0.2c0.2,0.2,0.5,0.4,0.7,0.6
	s0.5,0.4,0.7,0.6c0.5,0.4,1,0.7,1.4,1c1,0.6,1.9,1.1,2.8,1.5s1.8,0.7,2.6,1c0.9,0.2,1.6,0.4,2.4,0.5c1.5,0.1,2.7,0,3.7-0.3
	c0.8-0.2,1.4-0.6,1.8-1c0.3,0.1,0.5,0.2,0.8,0.4c1.8,0.8,3.6,1.4,5.2,2c-0.5,0.1-1.1,0.1-1.7,0.2c-0.7,0.1-1.3,0.2-2,0.2
	c-0.7,0.1-1.3,0.1-2,0.2c-1.3,0.1-2.5,0.2-3.6,0.3c-1,0.1-1.8,0.2-2.3,0.3c0.6,0.3,1.1,0.6,1.7,0.8c0.6,0.2,1.1,0.5,1.7,0.7
	c1.1,0.4,2.2,0.7,3.2,0.9c2,0.4,3.8,0.4,5.3,0.2c2.7-0.3,4.4-1.3,5.1-2.4c1.5,0.3,2.9,0.5,4.1,0.6c0.4,0,0.8,0.1,1.1,0.1
	c-1,0.7-1.8,1.6-2.3,2.7l1.8,0.7c1.1-1.8,3-3,5.2-3s4.2,1.2,5.2,3l1.8-0.7c-0.6-1.1-1.4-2-2.3-2.7c0.4,0,0.7-0.1,1.1-0.1
	c1.2-0.1,2.6-0.3,4.1-0.6c0.8,1.1,2.5,2.1,5.1,2.4c1.5,0.2,3.3,0.2,5.3-0.2c1-0.2,2.1-0.5,3.2-0.9c0.5-0.2,1.1-0.4,1.7-0.7
	c0.6-0.3,1.1-0.5,1.7-0.8c-0.5-0.1-1.3-0.2-2.3-0.3c-1-0.1-2.3-0.2-3.6-0.3c-0.7-0.1-1.3-0.1-2-0.2s-1.4-0.2-2-0.2
	c-0.6-0.1-1.1-0.1-1.7-0.2c1.7-0.5,3.4-1.2,5.2-2c0.3-0.1,0.5-0.2,0.8-0.4c0.4,0.4,1,0.7,1.8,1c1,0.3,2.2,0.4,3.7,0.3
	c0.7-0.1,1.5-0.2,2.4-0.5c0.8-0.2,1.7-0.6,2.6-1s1.9-0.9,2.8-1.5c0.5-0.3,1-0.7,1.4-1c0.2-0.2,0.5-0.4,0.7-0.6s0.5-0.4,0.7-0.6
	c-0.5,0-1.2,0.1-2.3,0.2c-1,0.1-2.2,0.3-3.5,0.5s-2.6,0.3-3.9,0.5c-0.6,0.1-1.2,0.1-1.8,0.2c1.1-0.6,2.2-1.3,3.3-2.1
	c0.8-0.5,1.5-1.1,2.2-1.6c0.5,0.3,1.1,0.5,1.9,0.5c1,0.1,2.2-0.1,3.6-0.6c0.7-0.2,1.4-0.6,2.2-1c0.8-0.4,1.5-0.9,2.3-1.5
	c1.6-1.2,3.2-2.8,4.7-4.8c-0.9,0.2-3,1.1-5.4,1.9c-0.6,0.2-1.2,0.4-1.8,0.7c-0.6,0.2-1.2,0.5-1.8,0.7c-0.6,0.2-1.1,0.4-1.7,0.6
	c0.8-0.7,1.6-1.5,2.4-2.3s1.6-1.7,2.3-2.6c0.5,0.2,1.2,0.2,2,0.1c0.5-0.1,1-0.2,1.6-0.4c0.6-0.2,1.1-0.5,1.7-0.9
	c2.4-1.5,5.2-4.4,7.2-9c-0.4,0.2-1.1,0.6-1.9,1.1s-1.8,1.2-2.8,1.9c-1.5,1-3.1,2-4.6,3c0.6-0.9,1.2-1.9,1.8-2.9c0.6-1,1.1-2,1.6-3
	c1.2,0.1,3-0.6,4.8-2.4c2-2,4-5.4,4.9-10.1c-0.3,0.3-0.9,0.8-1.5,1.5c-0.7,0.7-1.4,1.6-2.3,2.4c-0.4,0.4-0.8,0.9-1.3,1.4
	c-0.4,0.4-0.9,0.9-1.3,1.3c-0.2,0.2-0.4,0.4-0.6,0.7c-0.2,0.2-0.4,0.4-0.6,0.6c0.5-1.3,0.9-2.5,1.3-3.8c0.3-0.9,0.5-1.9,0.7-2.8
	c0.5-0.1,1.2-0.3,1.8-0.8c0.8-0.6,1.5-1.4,2.3-2.6c1.4-2.4,2.6-6,2.4-10.8c-0.3,0.3-0.7,1-1.1,1.8c-0.5,0.8-1.1,1.8-1.6,2.8
	c-0.6,1-1.3,2.1-1.9,3.2c-0.3,0.5-0.6,1-0.9,1.5c0,0,0,0.1-0.1,0.1c0.2-1.6,0.3-3.2,0.4-4.7c0-0.8,0-1.6,0-2.4
	c0.5-0.2,1.1-0.6,1.6-1.2c0.3-0.4,0.6-0.8,0.9-1.3s0.5-1.1,0.7-1.7c0.2-0.7,0.4-1.4,0.5-2.2c0.1-0.8,0.2-1.7,0.2-2.6
	c0-1.8-0.3-4-1.1-6.2c-0.2,0.4-0.4,1.1-0.6,2c-0.1,0.5-0.3,0.9-0.4,1.5c-0.1,0.5-0.3,1.1-0.5,1.7s-0.3,1.2-0.5,1.7
	c-0.2,0.6-0.3,1.2-0.5,1.7c-0.2,0.6-0.3,1.1-0.5,1.7c0,0.2-0.1,0.3-0.1,0.4c-0.2-1.8-0.5-3.5-0.9-5.2c-0.2-0.7-0.4-1.5-0.5-2.2
	c0.5-0.3,1-0.8,1.3-1.6c0.2-0.4,0.4-0.9,0.5-1.4s0.2-1.1,0.2-1.8c0.1-2.7-0.6-6.4-3-10.2c-0.1,0.8-0.1,2.9-0.2,5.2
	c0,1.2-0.1,2.4-0.1,3.5c0,0.8-0.1,1.6-0.1,2.3c-0.6-1.5-1.2-3-1.9-4.4c-0.4-0.9-0.9-1.8-1.4-2.6c0.4-0.4,0.7-1,0.9-1.9
	c0.1-0.4,0.1-0.9,0.1-1.5c0-0.5-0.1-1.1-0.2-1.8C124.5,47.9,123,44.5,119.7,41.4z"/>
<path class="st3" d="M70.2,111.9c3.5,2.5,6.5,3.8,8.2,4.5c1.6-0.6,4.7-2,8.2-4.5C81.1,111.5,75.6,111.5,70.2,111.9z"/>
<path class="st3" d="M95,46.5c-5.7,2-14.2,2.2-16.5,2.2l0,0h-0.3c-2.3,0-10.8-0.2-16.5-2.2c-1.7,4.3-6.6,12.7-15.4,13.8
	C46.8,78,51.7,90.4,57.5,99c13.8-2.4,28-2.4,41.8,0c5.8-8.6,10.7-20.9,11.2-38.7C101.7,59.1,96.7,50.8,95,46.5z M96.6,94.8
	L78.3,82.7l-18.1,12c-1.4-2.3-2.8-4.9-4-7.7l22.2-14.6L100.7,87C99.4,89.9,98,92.5,96.6,94.8z M104.7,70.8H51.9
	c-0.3-2.2-0.6-4.5-0.7-6.9c3.6-1.3,6.9-3.7,9.8-7.1c1.3-1.5,2.4-3.2,3.3-4.7c5.6,1.2,11.6,1.3,14,1.4h0.3l0,0c2.4,0,8.4-0.2,14-1.4
	c0.9,1.5,2,3.2,3.3,4.7c2.8,3.4,6.1,5.8,9.8,7.1C105.3,66.3,105,68.6,104.7,70.8z"/>
<path class="st3" d="M150.6,47.9c-4-9.3-9.6-17.7-16.8-24.9c-7.2-7.2-15.6-12.9-24.9-16.8C99.2,2.1,88.9,0,78.4,0
	C67.8,0,57.5,2.1,47.9,6.2c-9.3,4-17.7,9.6-24.9,16.8c-7.2,7.2-12.9,15.6-16.8,24.9C2.1,57.6,0,67.9,0,78.4s2.1,20.9,6.2,30.5
	c4,9.3,9.6,17.7,16.8,24.9c7.2,7.2,15.6,12.9,24.9,16.8c9.7,4.1,20,6.2,30.5,6.2s20.9-2.1,30.5-6.2c9.3-4,17.7-9.6,24.9-16.8
	c7.2-7.2,12.9-15.6,16.8-24.9c4.1-9.7,6.2-20,6.2-30.5S154.7,57.5,150.6,47.9z M153.6,93.7c-0.1,0.6-0.3,1.2-0.4,1.9
	c-0.3,1.2-0.6,2.5-0.9,3.7c-0.9,3.1-1.9,6.1-3.2,9c-0.2,0.6-0.5,1.1-0.7,1.7c-0.3,0.6-0.5,1.1-0.8,1.7c-0.5,1.1-1.1,2.2-1.7,3.3
	c-0.6,1.1-1.2,2.2-1.8,3.2c-0.6,1.1-1.3,2.1-2,3.1c-1.4,2-2.8,4-4.4,5.9c-0.8,1-1.6,1.9-2.4,2.8s-1.7,1.8-2.6,2.7
	c-5.7,5.7-12.2,10.5-19.4,14.1c-1.1,0.6-2.2,1.1-3.3,1.6c-0.6,0.3-1.1,0.5-1.7,0.7c-2.4,1-4.8,1.9-7.2,2.6c-2.4,0.8-4.9,1.4-7.4,1.9
	c-5,1-10.1,1.5-15.3,1.5c-3.8,0-7.6-0.3-11.3-0.8c-1.5-0.2-3-0.5-4.4-0.8c-1-0.2-1.9-0.4-2.9-0.7c-0.3-0.1-0.6-0.2-0.9-0.2
	c-0.9-0.2-1.8-0.5-2.6-0.7c-1.3-0.4-2.6-0.8-3.9-1.3s-2.6-1-3.8-1.5c-1.7-0.7-3.4-1.5-5-2.4c-0.5-0.3-1.1-0.6-1.6-0.9
	c-6.5-3.5-12.4-8-17.7-13.2c-2.6-2.6-5.1-5.4-7.3-8.4c-0.5-0.7-1-1.4-1.5-2.1c-0.6-0.8-1.1-1.6-1.6-2.4c-0.3-0.5-0.6-0.9-0.9-1.4
	c-2-3.2-3.7-6.6-5.2-10.1c-0.5-1.2-1-2.4-1.4-3.6s-0.8-2.4-1.2-3.6c-0.4-1.2-0.7-2.4-1-3.7c-0.3-1.2-0.6-2.5-0.9-3.7
	c-0.6-3.1-1.1-6.3-1.3-9.5c-0.1-1.3-0.2-2.6-0.2-3.9c0-0.6,0-1.3,0-1.9s0-1.3,0-1.9c0-1.3,0.1-2.6,0.2-3.9c0.2-2.6,0.5-5.1,0.9-7.6
	c0.2-1.4,0.5-2.8,0.9-4.2c0.1-0.5,0.2-0.9,0.3-1.4c0.3-1.2,0.7-2.5,1-3.7c0.4-1.2,0.8-2.4,1.2-3.6c0.4-1.2,0.9-2.4,1.4-3.6
	c1.5-3.5,3.2-6.9,5.2-10.1c0.3-0.5,0.6-0.9,0.9-1.4c0.7-1,1.3-2.1,2.1-3.1c1.2-1.8,2.6-3.5,4-5.1c1.4-1.7,2.9-3.2,4.4-4.8
	c0.9-0.9,1.8-1.7,2.7-2.6c0.9-0.8,1.9-1.6,2.8-2.4c1-0.8,1.9-1.5,2.9-2.3c0.5-0.4,1-0.7,1.5-1.1c1-0.7,2-1.4,3.1-2.1
	c0.5-0.3,1-0.7,1.6-1c3.2-1.9,6.5-3.6,9.9-5c1-0.4,1.9-0.8,2.9-1.2c1.6-0.6,3.2-1.2,4.9-1.6c0.9-0.3,1.8-0.5,2.6-0.7
	c2.4-0.6,4.8-1.1,7.2-1.5c1.6-0.3,3.2-0.5,4.9-0.6c2.5-0.2,4.9-0.4,7.4-0.4C83.9,1.4,89,1.9,94,2.9c0.6,0.1,1.2,0.3,1.9,0.4
	c1.9,0.4,3.7,0.9,5.5,1.5c1.2,0.4,2.4,0.8,3.6,1.2s2.4,0.9,3.6,1.4c3.4,1.5,6.7,3.1,9.9,5c0.5,0.3,1,0.6,1.6,1
	c1,0.7,2.1,1.3,3.1,2.1c0.5,0.4,1,0.7,1.5,1.1c1,0.7,2,1.5,2.9,2.3c1,0.8,1.9,1.6,2.8,2.4c0.9,0.8,1.8,1.7,2.7,2.6
	c3.1,3.1,5.9,6.4,8.4,9.9c0.4,0.5,0.7,1,1,1.5c0.7,1,1.3,2.1,2,3.1c0.6,1.1,1.2,2.1,1.8,3.2c0.6,1.1,1.1,2.2,1.7,3.3
	c0.3,0.6,0.5,1.1,0.8,1.7s0.5,1.1,0.7,1.7c1.2,2.8,2.2,5.7,3.1,8.6c0.1,0.3,0.2,0.5,0.2,0.8c0.3,1.1,0.6,2.2,0.8,3.3
	c0.2,0.7,0.3,1.4,0.5,2.2c0.4,1.8,0.6,3.6,0.9,5.4c0.4,3.2,0.6,6.4,0.6,9.6s-0.2,6.4-0.6,9.6C154.3,89.9,154,91.8,153.6,93.7z"/>
<path class="st3" d="M78.4,16.9c-33.9,0-61.5,27.6-61.5,61.5s27.6,61.5,61.5,61.5s61.5-27.6,61.5-61.5S112.3,16.9,78.4,16.9z
	 M78.4,138.2c-33,0-59.8-26.8-59.8-59.8s26.8-59.8,59.8-59.8s59.8,26.8,59.8,59.8S111.4,138.2,78.4,138.2z"/>
</svg>
